<svg xmlns="http://www.w3.org/2000/svg" width="552.538" height="566.325" viewBox="0 0 552.538 566.325">
  <defs>
    <style>
      .cls-1 {
        fill: #f5f5f5;
      }

      .cls-2 {
        fill: #e0e0e0;
      }

      .cls-3 {
        fill: #269996;
      }

      .cls-13, .cls-15, .cls-19, .cls-4 {
        fill: #fff;
      }

      .cls-5 {
        fill: #404040;
      }

      .cls-6 {
        fill: gray;
      }

      .cls-7 {
        fill: #004990;
      }

      .cls-8 {
        opacity: 0.4;
      }

      .cls-9 {
        fill: #edad27;
      }

      .cls-10 {
        opacity: 0.75;
      }

      .cls-11 {
        fill: #f0f0f0;
      }

      .cls-12, .cls-19 {
        opacity: 0.6;
      }

      .cls-13 {
        opacity: 0.5;
      }

      .cls-14 {
        fill: #fafafa;
      }

      .cls-15 {
        opacity: 0.7;
      }

      .cls-16 {
        fill: #ffd0a7;
      }

      .cls-17 {
        fill: #1a1a1a;
      }

      .cls-18 {
        fill: #f28f8f;
      }
    </style>
  </defs>
  <g id="Group_3405" data-name="Group 3405" transform="translate(-22.461 -23.522)">
    <g id="Floor" transform="translate(29.941 306.075)">
      <ellipse id="Floor-2" data-name="Floor" class="cls-1" cx="272.529" cy="141.886" rx="272.529" ry="141.886"/>
    </g>
    <g id="Shadows" transform="translate(69.079 341.059)">
      <path id="Shadow" class="cls-2" d="M330.692,372.329c-25.515-14.731-66.884-14.731-92.4,0-21.628,12.488-24.915,31.55-9.874,46.04a10.8,10.8,0,0,0-2.432.989L145.38,465.9c-3.422,1.975-3.422,5.178,0,7.155l5.045,2.913a12.733,12.733,0,0,0,12.182-.341l75.073-49.133a7.406,7.406,0,0,0,.863-.679c25.534,14.59,66.714,14.547,92.15-.137C356.207,410.946,356.207,387.061,330.692,372.329Z" transform="translate(-41.326 -263.172)"/>
      <ellipse id="Shadow-2" data-name="Shadow" class="cls-2" cx="66.689" cy="38.503" rx="66.689" ry="38.503" transform="translate(356.333 67.628)"/>
      <path id="Shadow-3" data-name="Shadow" class="cls-2" d="M81.443,455.164l279.6-161.354c1.471-.849,1.473-2.23,0-3.084L346.371,282.2a5.865,5.865,0,0,0-5.325-.007L61.447,443.618c-1.471.85-1.471,2.227,0,3.076l14.667,8.468A5.891,5.891,0,0,0,81.443,455.164Z" transform="translate(-60.344 -281.557)"/>
    </g>
    <g id="Plants" transform="translate(22.461 377.658)">
      <g id="Plants-2" data-name="Plants" transform="translate(0 0)">
        <g id="Group_3273" data-name="Group 3273" transform="translate(4.809)">
          <g id="Group_3271" data-name="Group 3271">
            <path id="Path_376" data-name="Path 376" class="cls-3" d="M81.544,391.314s-.095-28.583-6.773-45.946-18.2-29.715-30.58-33.3-24.906,5.925-13.074,16.661S65.2,352.513,70.123,384.573Z" transform="translate(-26.369 -311.298)"/>
          </g>
          <g id="Group_3272" data-name="Group 3272" transform="translate(10.336 5.489)">
            <path id="Path_378" data-name="Path 378" class="cls-4" d="M75.077,376.043a.6.6,0,0,0,.14-.012.685.685,0,0,0,.549-.8c-6.581-35.5-29.059-54.384-40.026-59.408a.687.687,0,0,0-.57,1.25c10.742,4.922,32.768,23.465,39.247,58.409A.689.689,0,0,0,75.077,376.043Z" transform="translate(-34.768 -315.758)"/>
          </g>
        </g>
        <g id="Group_3278" data-name="Group 3278" transform="translate(0 42.294)">
          <g id="Group_3275" data-name="Group 3275">
            <g id="Group_3274" data-name="Group 3274">
              <path id="Path_379" data-name="Path 379" class="cls-3" d="M97.441,415.136c1.859-3.27,2.466-5.859,2.524-12.152S96.2,386.6,87.689,382.486c-2.582-1.249-5.954-2.088-7.48-4.868-1.441-2.627-.852-7.727-1.231-10.65-.484-3.737-1.191-7.761-3.924-10.356-2.809-2.667-7.03-3.113-10.9-3.049-3.251.053-6.562.354-9.757-.412-3.118-.748-5.7-2.645-8.513-4.142-4.567-2.429-9.894-4.291-14.853-2.822a11.983,11.983,0,0,0-7.668,16.074c1.111,2.684,3.149,4.865,4.639,7.358,1.456,2.435,2.294,5.344,1.165,8.064-.836,2.016-2.334,3.553-3.025,5.64-1.776,5.375-.785,10.2,4.573,12.952,5.592,2.872,14.42.71,17.187,7.748,1.051,2.675,1.09,5.625,1.661,8.442a22.739,22.739,0,0,0,9.213,14,23.128,23.128,0,0,0,12.016,4.111s8.118-4.748,11.657-6.779C87.856,420.688,97.441,415.136,97.441,415.136Z" transform="translate(-22.461 -345.666)"/>
            </g>
          </g>
          <g id="Group_3276" data-name="Group 3276" transform="translate(17.683 35.059)">
            <path id="Path_380" data-name="Path 380" class="cls-4" d="M37.37,377.77a.651.651,0,0,0,.383-.053c.133-.064,13.571-6.272,29.133,2.1a.647.647,0,0,0,.612-1.141c-16.164-8.7-30.16-2.2-30.3-2.133a.647.647,0,0,0,.172,1.222Z" transform="translate(-36.83 -374.155)"/>
          </g>
          <g id="Group_3277" data-name="Group 3277" transform="translate(12.553 7.635)">
            <path id="Path_381" data-name="Path 381" class="cls-4" d="M80.177,417.148a.6.6,0,0,1-.618-.578c-1.111-27.081-28.3-55.72-46.53-63.541a.6.6,0,0,1,.476-1.111c18.514,7.944,46.13,37.058,47.262,64.6a.6.6,0,0,1-.578.629Z" transform="translate(-32.662 -351.87)"/>
          </g>
        </g>
      </g>
    </g>
    <g id="Chart_3" data-name="Chart 3" transform="translate(274.16 242.86)">
      <g id="Window_Chart" data-name="Window Chart">
        <g id="Window">
          <path id="Path_382" data-name="Path 382" class="cls-5" d="M312.061,202.2a4.059,4.059,0,0,0-4.232.345l-75,43.291A12.875,12.875,0,0,0,227,255.932v8.4l.016.016-.025-.015v80.522a6.4,6.4,0,0,0,.057.852,6.185,6.185,0,0,0,3.047,4.522l6.151,3.559.3.17a3.988,3.988,0,0,1-2.093-3.513l-.006-78.5V260.166a12.93,12.93,0,0,1,5.84-10.112l74.984-43.291a4.231,4.231,0,0,1,3.926-.5C317.96,205.613,313.113,202.836,312.061,202.2Z" transform="translate(-226.995 -201.759)"/>
          <path id="Path_383" data-name="Path 383" d="M319.683,208.615a2.351,2.351,0,0,0-.1-.537c.02-.038,0-.076-.018-.114a1.983,1.983,0,0,0-.134-.517,2.645,2.645,0,0,0-.345-.747,1.026,1.026,0,0,0-.192-.306.866.866,0,0,0-.172-.21,1.764,1.764,0,0,0-.383-.383l-.038-.039a2.615,2.615,0,0,0-.5-.287,4.234,4.234,0,0,0-3.926.5L238.9,249.264a12.93,12.93,0,0,0-5.84,10.112l0,90.279h0a3.99,3.99,0,0,0,5.986,3.454l74.834-43.3a12.9,12.9,0,0,0,5.84-10.111V209.343C319.721,209.093,319.7,208.845,319.683,208.615Z" transform="translate(-225.597 -200.969)"/>
          <path id="Path_384" data-name="Path 384" class="cls-6" d="M314.941,206.768l-74.977,43.29a11.973,11.973,0,0,0-4.11,4.33l-7.413-4.294a11.663,11.663,0,0,1,4.059-4.26l74.99-43.29a4.1,4.1,0,0,1,4.239-.346c1.046.642,5.89,3.4,7.119,4.056A4.215,4.215,0,0,0,314.941,206.768Z" transform="translate(-226.662 -201.759)"/>
        </g>
        <g id="Chart" transform="translate(12.311 27.161)">
          <g id="Group_3295" data-name="Group 3295" transform="translate(20.946 21.757)">
            <g id="Group_3281" data-name="Group 3281" transform="translate(18.345)">
              <g id="Group_3280" data-name="Group 3280">
                <g id="Group_3279" data-name="Group 3279">
                  <path id="Path_385" data-name="Path 385" class="cls-7" d="M268.927,271.122v-27.99c7.429-4.215,14.181.03,16.544,9.932,2.92,12.232-1.941,31.3-10.917,41.423Z" transform="translate(-268.927 -241.511)"/>
                </g>
              </g>
            </g>
            <g id="Group_3284" data-name="Group 3284" transform="translate(12.918 34.85)">
              <g id="Group_3283" data-name="Group 3283">
                <g id="Group_3282" data-name="Group 3282">
                  <path id="Path_386" data-name="Path 386" class="cls-7" d="M269.042,292.25a12.8,12.8,0,0,1-4.525,1.635l4.525-24.056,4.525,18.831A21.962,21.962,0,0,1,269.042,292.25Z" transform="translate(-264.517 -269.83)"/>
                </g>
              </g>
            </g>
            <g id="Group_3287" data-name="Group 3287" class="cls-8" transform="translate(12.918 34.85)">
              <g id="Group_3286" data-name="Group 3286">
                <g id="Group_3285" data-name="Group 3285">
                  <path id="Path_387" data-name="Path 387" class="cls-4" d="M269.042,292.25a12.8,12.8,0,0,1-4.525,1.635l4.525-24.056,4.525,18.831A21.962,21.962,0,0,1,269.042,292.25Z" transform="translate(-264.517 -269.83)"/>
                </g>
              </g>
            </g>
            <g id="Group_3290" data-name="Group 3290" transform="translate(0.29 33.329)">
              <g id="Group_3289" data-name="Group 3289">
                <g id="Group_3288" data-name="Group 3288">
                  <path id="Path_388" data-name="Path 388" class="cls-7" d="M264.885,295.785c-4.876.188-8.9-3.711-10.629-10.239L270,268.594Z" transform="translate(-254.256 -268.594)"/>
                </g>
              </g>
            </g>
            <g id="Group_3292" data-name="Group 3292" transform="translate(0.29 33.329)">
              <g id="Group_3291" data-name="Group 3291">
                <path id="Path_389" data-name="Path 389" class="cls-9" d="M264.885,295.785c-4.876.188-8.9-3.711-10.629-10.239L270,268.594Z" transform="translate(-254.256 -268.594)"/>
              </g>
            </g>
            <g id="Group_3293" data-name="Group 3293" transform="translate(0 4.055)">
              <path id="Path_390" data-name="Path 390" class="cls-7" d="M254.614,287.8a32.714,32.714,0,0,1-.594-6.624c0-14.34,7.341-30.331,16.539-36.368v25.809Z" transform="translate(-254.02 -244.806)"/>
            </g>
            <g id="Group_3294" data-name="Group 3294" class="cls-10" transform="translate(0 4.055)">
              <path id="Path_391" data-name="Path 391" class="cls-4" d="M254.614,287.8a32.714,32.714,0,0,1-.594-6.624c0-14.34,7.341-30.331,16.539-36.368v25.809Z" transform="translate(-254.02 -244.806)"/>
            </g>
          </g>
          <g id="Group_3296" data-name="Group 3296" transform="translate(51.038 28.205)">
            <path id="Path_392" data-name="Path 392" class="cls-11" d="M278.5,254.182c-.036-.034-.038-.135,0-.276a.92.92,0,0,1,.283-.481l1.073-.62c.1-.059.134.066.076.274a.918.918,0,0,1-.282.48l-1.074.62C278.543,254.2,278.517,254.2,278.5,254.182Zm2.149-1.242c-.036-.034-.039-.134,0-.276a.918.918,0,0,1,.282-.48l1.074-.62c.1-.06.134.064.076.273a.915.915,0,0,1-.283.481l-1.074.62C280.691,252.958,280.666,252.957,280.649,252.94ZM282.8,251.7c-.036-.034-.038-.135,0-.276a.928.928,0,0,1,.282-.481l1.074-.62c.1-.059.134.065.076.274a.928.928,0,0,1-.282.481l-1.074.62C282.839,251.719,282.813,251.718,282.8,251.7Zm2.149-1.24c-.036-.034-.039-.135,0-.276a.923.923,0,0,1,.282-.481l1.074-.62c.1-.062.134.064.076.273a.931.931,0,0,1-.283.481l-1.074.62C284.987,250.479,284.962,250.477,284.945,250.461Zm2.149-1.242c-.036-.033-.039-.134,0-.274a.917.917,0,0,1,.282-.481l1.073-.621c.1-.06.135.063.076.274a.928.928,0,0,1-.282.481l-1.074.62C287.137,249.238,287.111,249.237,287.093,249.22Zm2.147-1.238c-.037-.036-.039-.135,0-.276a.918.918,0,0,1,.282-.481l.794-.459c.1-.062.135.062.076.273a.927.927,0,0,1-.282.481l-.795.459C289.283,248,289.258,248,289.241,247.982Z" transform="translate(-278.473 -246.75)"/>
          </g>
          <g id="Group_3297" data-name="Group 3297" transform="translate(14.51 47.38)">
            <path id="Path_393" data-name="Path 393" class="cls-11" d="M248.817,269.748c-.036-.034-.038-.135,0-.276a.923.923,0,0,1,.283-.481l1.073-.62c.1-.06.134.065.076.274a.918.918,0,0,1-.282.48l-1.074.62C248.86,269.766,248.834,269.764,248.817,269.748Zm2.149-1.242c-.036-.034-.039-.134,0-.276a.918.918,0,0,1,.282-.48l1.074-.62c.1-.062.134.064.076.273a.931.931,0,0,1-.282.481l-1.076.62C251.008,268.524,250.983,268.523,250.966,268.506Zm2.147-1.238c-.036-.034-.038-.135,0-.276a.928.928,0,0,1,.282-.481l1.074-.62c.1-.062.134.062.076.273a.924.924,0,0,1-.283.481l-1.073.621C253.156,267.285,253.132,267.285,253.113,267.268Zm2.149-1.242c-.036-.034-.039-.134,0-.276a.918.918,0,0,1,.282-.48l1.074-.62c.1-.06.134.064.075.273a.915.915,0,0,1-.282.481l-1.074.62C255.3,266.045,255.279,266.044,255.262,266.026Zm2.149-1.24c-.036-.034-.039-.134,0-.276a.918.918,0,0,1,.282-.48l1.074-.621c.1-.06.134.063.075.274a.928.928,0,0,1-.282.481l-1.074.62C257.452,264.8,257.428,264.8,257.41,264.786Zm2.147-1.24c-.036-.034-.038-.135,0-.276a.92.92,0,0,1,.283-.481l.767-.442c.1-.06.133.064.075.273a.917.917,0,0,1-.282.481l-.767.443C259.6,263.564,259.575,263.563,259.558,263.545Z" transform="translate(-248.789 -262.332)"/>
          </g>
          <g id="Group_3298" data-name="Group 3298" transform="translate(49.388 34.857)">
            <path id="Path_394" data-name="Path 394" d="M277.132,253.627a1.749,1.749,0,0,1,.662-1.4c.367-.21.663.074.663.637a1.745,1.745,0,0,1-.662,1.4C277.429,254.476,277.132,254.19,277.132,253.627Z" transform="translate(-277.132 -252.156)"/>
          </g>
          <g id="Group_3299" data-name="Group 3299" transform="translate(25.81 46.54)">
            <path id="Path_395" data-name="Path 395" d="M257.972,263.121a1.749,1.749,0,0,1,.662-1.4c.367-.212.663.074.663.638a1.742,1.742,0,0,1-.663,1.4C258.269,263.97,257.972,263.684,257.972,263.121Z" transform="translate(-257.972 -261.649)"/>
          </g>
          <g id="Group_3300" data-name="Group 3300" transform="translate(37.727 75.176)">
            <path id="Path_396" data-name="Path 396" d="M267.656,286.391a1.745,1.745,0,0,1,.662-1.4c.366-.212.662.074.662.636a1.749,1.749,0,0,1-.662,1.4C267.953,287.239,267.656,286.953,267.656,286.391Z" transform="translate(-267.656 -284.919)"/>
          </g>
          <g id="Group_3304" data-name="Group 3304" transform="translate(65.43 19.233)">
            <g id="Group_3301" data-name="Group 3301" transform="translate(0 3.827)">
              <path id="Path_397" data-name="Path 397" class="cls-7" d="M291.807,247.65a.067.067,0,0,1-.085-.007.154.154,0,0,1-.036-.11v-.84l-1.4.807a.065.065,0,0,1-.086-.007.148.148,0,0,1-.036-.11v-.493a.559.559,0,0,1,.03-.186c.02-.059.043-.127.069-.2l1.38-3.447a.564.564,0,0,1,.185-.281l.342-.2a.064.064,0,0,1,.086,0,.148.148,0,0,1,.036.112v2.775l.388-.225a.068.068,0,0,1,.086.007.15.15,0,0,1,.036.11v.495a.349.349,0,0,1-.036.151.229.229,0,0,1-.086.1l-.388.223v.84a.361.361,0,0,1-.037.153.233.233,0,0,1-.086.106Zm-.121-1.824v-1.485l-.772,1.931Z" transform="translate(-290.168 -242.569)"/>
            </g>
            <g id="Group_3302" data-name="Group 3302" transform="translate(2.956 2.075)">
              <path id="Path_398" data-name="Path 398" class="cls-7" d="M292.841,242.394a.335.335,0,0,1,.036-.154.234.234,0,0,1,.085-.1l1.693-.978a.07.07,0,0,1,.087.006.153.153,0,0,1,.036.112v.492a.348.348,0,0,1-.037.153.212.212,0,0,1-.085.1l-1.266.732-.049.917a1.162,1.162,0,0,1,.24-.228c.081-.057.146-.1.2-.128a1.159,1.159,0,0,1,.469-.167.549.549,0,0,1,.374.092.759.759,0,0,1,.247.361,1.9,1.9,0,0,1,.091.634,3.361,3.361,0,0,1-.094.815,2.847,2.847,0,0,1-.252.666,2.194,2.194,0,0,1-.377.516,2.219,2.219,0,0,1-.459.358,1.332,1.332,0,0,1-.534.2.545.545,0,0,1-.369-.09.633.633,0,0,1-.222-.309,1.526,1.526,0,0,1-.082-.469.313.313,0,0,1,.033-.155.251.251,0,0,1,.089-.1l.364-.21a.07.07,0,0,1,.081,0,.133.133,0,0,1,.049.092.449.449,0,0,0,.086.21.24.24,0,0,0,.135.082.329.329,0,0,0,.171-.02,1.194,1.194,0,0,0,.2-.095,1.079,1.079,0,0,0,.415-.453,1.464,1.464,0,0,0,.158-.682.5.5,0,0,0-.158-.429.371.371,0,0,0-.415.025,1.122,1.122,0,0,0-.214.154,1.275,1.275,0,0,0-.128.148c-.033.047-.063.089-.09.123a.318.318,0,0,1-.1.094l-.413.239a.065.065,0,0,1-.085,0,.148.148,0,0,1-.037-.113Z" transform="translate(-292.57 -241.145)"/>
            </g>
            <g id="Group_3303" data-name="Group 3303" transform="translate(5.709)">
              <path id="Path_399" data-name="Path 399" class="cls-7" d="M295.488,240.734a.538.538,0,0,1,.288-.09.325.325,0,0,1,.206.08.448.448,0,0,1,.126.2,1.1,1.1,0,0,1,.052.287c.006.117.01.244.009.38s0,.266-.007.389a1.971,1.971,0,0,1-.053.346,1.681,1.681,0,0,1-.126.351,1.563,1.563,0,0,1-.2.314,1.161,1.161,0,0,1-.289.239.583.583,0,0,1-.289.094.3.3,0,0,1-.2-.076.424.424,0,0,1-.126-.205,1.064,1.064,0,0,1-.053-.284c-.006-.117-.009-.244-.009-.38s0-.267.009-.39a1.924,1.924,0,0,1,.053-.347,1.573,1.573,0,0,1,.126-.348,1.532,1.532,0,0,1,.206-.316A1.04,1.04,0,0,1,295.488,240.734Zm.239,1.43c0-.028,0-.074,0-.134s0-.122,0-.187,0-.128,0-.187,0-.1,0-.13a.38.38,0,0,0-.059-.2c-.033-.046-.094-.044-.18.006a.411.411,0,0,0-.181.2.877.877,0,0,0-.058.271c0,.03,0,.075-.007.135s0,.124,0,.188,0,.127,0,.186a1.256,1.256,0,0,0,.006.128.375.375,0,0,0,.058.2c.033.048.094.043.181-.006a.4.4,0,0,0,.18-.2A.885.885,0,0,0,295.726,242.164Zm1.568-2.306a.66.66,0,0,1,.066-.135.264.264,0,0,1,.1-.091l.271-.156a.07.07,0,0,1,.079-.006.105.105,0,0,1,.028.084.148.148,0,0,1,0,.037.269.269,0,0,1-.014.049l-2.226,5.795a.855.855,0,0,1-.065.134.267.267,0,0,1-.1.091l-.27.155c-.034.02-.06.023-.079.007s-.031-.042-.031-.082l0-.038c0-.014.007-.031.014-.048Zm.144,2.187a.514.514,0,0,1,.289-.091.318.318,0,0,1,.2.079.433.433,0,0,1,.126.206,1.062,1.062,0,0,1,.053.286c.006.116.009.242.009.379s0,.267-.009.39a2.177,2.177,0,0,1-.052.347,1.717,1.717,0,0,1-.127.348,1.47,1.47,0,0,1-.2.313,1.137,1.137,0,0,1-.289.24.592.592,0,0,1-.288.094.31.31,0,0,1-.2-.076.439.439,0,0,1-.127-.2,1.058,1.058,0,0,1-.052-.288c-.006-.116-.01-.242-.01-.379s0-.266.01-.388a1.878,1.878,0,0,1,.052-.348,1.606,1.606,0,0,1,.331-.665A1.008,1.008,0,0,1,297.438,242.044Zm.239,1.43a1.289,1.289,0,0,0,0-.138v-.373a1.085,1.085,0,0,0,0-.129.382.382,0,0,0-.058-.2c-.033-.046-.094-.044-.181.006a.4.4,0,0,0-.18.2.878.878,0,0,0-.059.271c0,.03,0,.075-.006.135s0,.124,0,.188,0,.128,0,.187,0,.1.007.128a.41.41,0,0,0,.058.2c.033.044.094.041.181-.01a.393.393,0,0,0,.181-.2A.878.878,0,0,0,297.677,243.474Z" transform="translate(-294.807 -239.459)"/>
            </g>
          </g>
          <g id="Group_3308" data-name="Group 3308" transform="translate(2.547 52.589)">
            <g id="Group_3305" data-name="Group 3305" transform="translate(0 3.754)">
              <path id="Path_400" data-name="Path 400" class="cls-7" d="M241.3,269.628a.068.068,0,0,1,.086,0,.157.157,0,0,1,.037.112v.492a.435.435,0,0,1-.033.161c-.022.058-.044.11-.065.154L240.665,272a.855.855,0,0,1,.367-.061.476.476,0,0,1,.282.127.713.713,0,0,1,.18.315,1.749,1.749,0,0,1,.064.5,2.613,2.613,0,0,1-.094.7,2.645,2.645,0,0,1-.644,1.144,2.121,2.121,0,0,1-.485.384,1.357,1.357,0,0,1-.548.2.639.639,0,0,1-.388-.071.576.576,0,0,1-.236-.273,1.185,1.185,0,0,1-.095-.395.306.306,0,0,1,.034-.156.227.227,0,0,1,.087-.1l.356-.207a.059.059,0,0,1,.075,0,.332.332,0,0,1,.06.095.357.357,0,0,0,.073.113.222.222,0,0,0,.119.062.406.406,0,0,0,.187-.014,1.231,1.231,0,0,0,.276-.124,1.255,1.255,0,0,0,.443-.426,1.061,1.061,0,0,0,.169-.58c0-.208-.057-.325-.169-.351a.672.672,0,0,0-.443.122l-.374.215a.065.065,0,0,1-.086-.006.151.151,0,0,1-.037-.11v-.495a.453.453,0,0,1,.034-.161c.022-.055.044-.107.065-.153l.63-1.383-1.243.719a.066.066,0,0,1-.085-.007.138.138,0,0,1-.037-.11v-.492a.368.368,0,0,1,.036-.154.229.229,0,0,1,.086-.1Z" transform="translate(-239.069 -269.615)"/>
            </g>
            <g id="Group_3306" data-name="Group 3306" transform="translate(2.939 2.404)">
              <path id="Path_401" data-name="Path 401" class="cls-7" d="M243.89,269.879c0,.086,0,.182,0,.288s0,.217,0,.327,0,.219,0,.325,0,.2,0,.294a5.8,5.8,0,0,1-.08.791,3.159,3.159,0,0,1-.207.716,2.361,2.361,0,0,1-.369.608,2,2,0,0,1-.556.465,1.064,1.064,0,0,1-.559.18.49.49,0,0,1-.368-.183,1.109,1.109,0,0,1-.207-.476,4.047,4.047,0,0,1-.079-.7c-.006-.172-.009-.372-.009-.593s0-.428.009-.608a6,6,0,0,1,.079-.8,3.319,3.319,0,0,1,.208-.727,2.515,2.515,0,0,1,.367-.618,2,2,0,0,1,.559-.473,1.06,1.06,0,0,1,.556-.178.493.493,0,0,1,.369.182,1.1,1.1,0,0,1,.207.479A3.91,3.91,0,0,1,243.89,269.879Zm-1.816,2.248a1.407,1.407,0,0,0,.156.684c.089.132.238.138.448.016a1.017,1.017,0,0,0,.449-.534,2.87,2.87,0,0,0,.155-.864c.006-.18.009-.374.009-.586s0-.407-.01-.578a1.416,1.416,0,0,0-.154-.685c-.089-.132-.24-.134-.449-.014a1,1,0,0,0-.448.532,2.832,2.832,0,0,0-.156.865c-.006.177-.009.373-.009.587S242.067,271.954,242.073,272.127Z" transform="translate(-241.457 -268.519)"/>
            </g>
            <g id="Group_3307" data-name="Group 3307" transform="translate(5.809)">
              <path id="Path_402" data-name="Path 402" class="cls-7" d="M244.47,267.84a.527.527,0,0,1,.288-.091.328.328,0,0,1,.206.079.473.473,0,0,1,.126.2,1.119,1.119,0,0,1,.053.287c.006.116.009.245.009.379s0,.267-.009.391a2,2,0,0,1-.052.345,1.746,1.746,0,0,1-.127.352,1.6,1.6,0,0,1-.206.313,1.076,1.076,0,0,1-.288.237.587.587,0,0,1-.288.095.312.312,0,0,1-.206-.075.48.48,0,0,1-.127-.207,1.082,1.082,0,0,1-.05-.285c-.006-.117-.01-.244-.01-.38s0-.265.01-.39a1.992,1.992,0,0,1,.05-.345,1.714,1.714,0,0,1,.127-.351,1.616,1.616,0,0,1,.206-.315A1.009,1.009,0,0,1,244.47,267.84Zm.239,1.427a.983.983,0,0,0,0-.133c0-.06,0-.123,0-.187s0-.127,0-.188,0-.1,0-.128a.411.411,0,0,0-.058-.2c-.033-.046-.094-.043-.181.006a.405.405,0,0,0-.181.2.877.877,0,0,0-.058.268c0,.031-.006.078-.007.137s0,.123,0,.189,0,.124,0,.185,0,.1.007.128a.41.41,0,0,0,.058.2c.033.044.094.043.181-.007a.4.4,0,0,0,.18-.2A.909.909,0,0,0,244.708,269.267Zm1.568-2.3a.759.759,0,0,1,.065-.134.257.257,0,0,1,.1-.091l.271-.156a.07.07,0,0,1,.079-.007.1.1,0,0,1,.03.084.133.133,0,0,1-.006.038.221.221,0,0,1-.012.049l-2.226,5.794a.878.878,0,0,1-.065.135.277.277,0,0,1-.1.09l-.271.156c-.033.02-.059.021-.078.007a.1.1,0,0,1-.03-.085.3.3,0,0,1,0-.037c0-.015.009-.032.014-.049Zm.144,2.184a.562.562,0,0,1,.289-.09.325.325,0,0,1,.2.079.484.484,0,0,1,.127.206,1.1,1.1,0,0,1,.05.287c.007.115.01.244.01.38s0,.265-.009.389a2.033,2.033,0,0,1-.052.346,1.714,1.714,0,0,1-.127.351,1.519,1.519,0,0,1-.2.313,1.082,1.082,0,0,1-.289.237.574.574,0,0,1-.288.1.327.327,0,0,1-.206-.076.456.456,0,0,1-.126-.206,1.152,1.152,0,0,1-.053-.285c0-.116-.009-.242-.009-.379s0-.267.009-.391a2.021,2.021,0,0,1,.053-.346,1.683,1.683,0,0,1,.126-.351,1.594,1.594,0,0,1,.206-.315A1.1,1.1,0,0,1,246.42,269.147Zm.239,1.431a1.25,1.25,0,0,0,0-.135v-.373c0-.062,0-.1,0-.13a.388.388,0,0,0-.06-.2c-.032-.047-.092-.043-.18.007a.4.4,0,0,0-.18.2.877.877,0,0,0-.059.271c0,.028,0,.074-.006.135s0,.123,0,.188,0,.127,0,.185,0,.1.006.13a.38.38,0,0,0,.059.2c.033.046.092.043.18-.007a.4.4,0,0,0,.181-.2A.863.863,0,0,0,246.659,270.578Z" transform="translate(-243.789 -266.565)"/>
            </g>
          </g>
          <g id="Group_3312" data-name="Group 3312" class="cls-10" transform="translate(2.547 52.589)">
            <g id="Group_3309" data-name="Group 3309" transform="translate(0 3.754)">
              <path id="Path_403" data-name="Path 403" class="cls-4" d="M241.3,269.628a.068.068,0,0,1,.086,0,.157.157,0,0,1,.037.112v.492a.435.435,0,0,1-.033.161c-.022.058-.044.11-.065.154L240.665,272a.855.855,0,0,1,.367-.061.476.476,0,0,1,.282.127.713.713,0,0,1,.18.315,1.749,1.749,0,0,1,.064.5,2.613,2.613,0,0,1-.094.7,2.645,2.645,0,0,1-.644,1.144,2.121,2.121,0,0,1-.485.384,1.357,1.357,0,0,1-.548.2.639.639,0,0,1-.388-.071.576.576,0,0,1-.236-.273,1.185,1.185,0,0,1-.095-.395.306.306,0,0,1,.034-.156.227.227,0,0,1,.087-.1l.356-.207a.059.059,0,0,1,.075,0,.332.332,0,0,1,.06.095.357.357,0,0,0,.073.113.222.222,0,0,0,.119.062.406.406,0,0,0,.187-.014,1.231,1.231,0,0,0,.276-.124,1.255,1.255,0,0,0,.443-.426,1.061,1.061,0,0,0,.169-.58c0-.208-.057-.325-.169-.351a.672.672,0,0,0-.443.122l-.374.215a.065.065,0,0,1-.086-.006.151.151,0,0,1-.037-.11v-.495a.453.453,0,0,1,.034-.161c.022-.055.044-.107.065-.153l.63-1.383-1.243.719a.066.066,0,0,1-.085-.007.138.138,0,0,1-.037-.11v-.492a.368.368,0,0,1,.036-.154.229.229,0,0,1,.086-.1Z" transform="translate(-239.069 -269.615)"/>
            </g>
            <g id="Group_3310" data-name="Group 3310" transform="translate(2.939 2.404)">
              <path id="Path_404" data-name="Path 404" class="cls-4" d="M243.89,269.879c0,.086,0,.182,0,.288s0,.217,0,.327,0,.219,0,.325,0,.2,0,.294a5.8,5.8,0,0,1-.08.791,3.159,3.159,0,0,1-.207.716,2.361,2.361,0,0,1-.369.608,2,2,0,0,1-.556.465,1.064,1.064,0,0,1-.559.18.49.49,0,0,1-.368-.183,1.109,1.109,0,0,1-.207-.476,4.047,4.047,0,0,1-.079-.7c-.006-.172-.009-.372-.009-.593s0-.428.009-.608a6,6,0,0,1,.079-.8,3.319,3.319,0,0,1,.208-.727,2.515,2.515,0,0,1,.367-.618,2,2,0,0,1,.559-.473,1.06,1.06,0,0,1,.556-.178.493.493,0,0,1,.369.182,1.1,1.1,0,0,1,.207.479A3.91,3.91,0,0,1,243.89,269.879Zm-1.816,2.248a1.407,1.407,0,0,0,.156.684c.089.132.238.138.448.016a1.017,1.017,0,0,0,.449-.534,2.87,2.87,0,0,0,.155-.864c.006-.18.009-.374.009-.586s0-.407-.01-.578a1.416,1.416,0,0,0-.154-.685c-.089-.132-.24-.134-.449-.014a1,1,0,0,0-.448.532,2.832,2.832,0,0,0-.156.865c-.006.177-.009.373-.009.587S242.067,271.954,242.073,272.127Z" transform="translate(-241.457 -268.519)"/>
            </g>
            <g id="Group_3311" data-name="Group 3311" transform="translate(5.809)">
              <path id="Path_405" data-name="Path 405" class="cls-4" d="M244.47,267.84a.527.527,0,0,1,.288-.091.328.328,0,0,1,.206.079.473.473,0,0,1,.126.2,1.119,1.119,0,0,1,.053.287c.006.116.009.245.009.379s0,.267-.009.391a2,2,0,0,1-.052.345,1.746,1.746,0,0,1-.127.352,1.6,1.6,0,0,1-.206.313,1.076,1.076,0,0,1-.288.237.587.587,0,0,1-.288.095.312.312,0,0,1-.206-.075.48.48,0,0,1-.127-.207,1.082,1.082,0,0,1-.05-.285c-.006-.117-.01-.244-.01-.38s0-.265.01-.39a1.992,1.992,0,0,1,.05-.345,1.714,1.714,0,0,1,.127-.351,1.616,1.616,0,0,1,.206-.315A1.009,1.009,0,0,1,244.47,267.84Zm.239,1.427a.983.983,0,0,0,0-.133c0-.06,0-.123,0-.187s0-.127,0-.188,0-.1,0-.128a.411.411,0,0,0-.058-.2c-.033-.046-.094-.043-.181.006a.405.405,0,0,0-.181.2.877.877,0,0,0-.058.268c0,.031-.006.078-.007.137s0,.123,0,.189,0,.124,0,.185,0,.1.007.128a.41.41,0,0,0,.058.2c.033.044.094.043.181-.007a.4.4,0,0,0,.18-.2A.909.909,0,0,0,244.708,269.267Zm1.568-2.3a.759.759,0,0,1,.065-.134.257.257,0,0,1,.1-.091l.271-.156a.07.07,0,0,1,.079-.007.1.1,0,0,1,.03.084.133.133,0,0,1-.006.038.221.221,0,0,1-.012.049l-2.226,5.794a.878.878,0,0,1-.065.135.277.277,0,0,1-.1.09l-.271.156c-.033.02-.059.021-.078.007a.1.1,0,0,1-.03-.085.3.3,0,0,1,0-.037c0-.015.009-.032.014-.049Zm.144,2.184a.562.562,0,0,1,.289-.09.325.325,0,0,1,.2.079.484.484,0,0,1,.127.206,1.1,1.1,0,0,1,.05.287c.007.115.01.244.01.38s0,.265-.009.389a2.033,2.033,0,0,1-.052.346,1.714,1.714,0,0,1-.127.351,1.519,1.519,0,0,1-.2.313,1.082,1.082,0,0,1-.289.237.574.574,0,0,1-.288.1.327.327,0,0,1-.206-.076.456.456,0,0,1-.126-.206,1.152,1.152,0,0,1-.053-.285c0-.116-.009-.242-.009-.379s0-.267.009-.391a2.021,2.021,0,0,1,.053-.346,1.683,1.683,0,0,1,.126-.351,1.594,1.594,0,0,1,.206-.315A1.1,1.1,0,0,1,246.42,269.147Zm.239,1.431a1.25,1.25,0,0,0,0-.135v-.373c0-.062,0-.1,0-.13a.388.388,0,0,0-.06-.2c-.032-.047-.092-.043-.18.007a.4.4,0,0,0-.18.2.877.877,0,0,0-.059.271c0,.028,0,.074-.006.135s0,.123,0,.188,0,.127,0,.185,0,.1.006.13a.38.38,0,0,0,.059.2c.033.046.092.043.18-.007a.4.4,0,0,0,.181-.2A.863.863,0,0,0,246.659,270.578Z" transform="translate(-243.789 -266.565)"/>
            </g>
          </g>
          <g id="Group_3313" data-name="Group 3313" transform="translate(16.799 75.96)">
            <path id="Path_406" data-name="Path 406" class="cls-11" d="M250.677,301.349c-.036-.034-.038-.135,0-.276a.931.931,0,0,1,.282-.481l1.074-.62c.1-.06.134.064.076.274a.919.919,0,0,1-.282.48l-1.074.62C250.72,301.367,250.694,301.365,250.677,301.349Zm2.149-1.242c-.036-.034-.039-.135,0-.276a.918.918,0,0,1,.282-.48l1.074-.62c.1-.061.134.064.076.273a.931.931,0,0,1-.282.481l-1.074.62C252.869,300.126,252.843,300.125,252.826,300.108Zm2.147-1.238c-.036-.034-.038-.135,0-.276a.922.922,0,0,1,.282-.481l1.074-.62c.1-.062.134.064.076.274a.918.918,0,0,1-.282.48l-1.074.62C255.016,298.887,254.99,298.886,254.973,298.87Zm2.149-1.242c-.036-.034-.039-.134,0-.276a.918.918,0,0,1,.282-.48l1.074-.62c.1-.06.133.065.076.273a.923.923,0,0,1-.283.481l-1.074.62C257.164,297.647,257.139,297.645,257.122,297.628Zm2.149-1.24c-.036-.034-.039-.135,0-.274a.917.917,0,0,1,.282-.481l1.074-.621c.1-.059.134.063.075.274a.927.927,0,0,1-.282.481l-1.074.62C259.314,296.406,259.288,296.4,259.27,296.388Zm1.536-1.827a.139.139,0,0,1-.028-.1v-1.654a1.119,1.119,0,0,1,.207-.554c.114-.156.208-.161.207,0V293.9a1.108,1.108,0,0,1-.207.554C260.908,294.561,260.842,294.595,260.806,294.56Zm0-3.308a.136.136,0,0,1-.027-.1V289.5a1.112,1.112,0,0,1,.207-.554c.114-.156.207-.158.205,0V290.6a1.1,1.1,0,0,1-.207.554C260.908,291.254,260.842,291.287,260.806,291.252Zm0-3.308a.134.134,0,0,1-.027-.1v-1.616a1.1,1.1,0,0,1,.207-.553c.114-.158.207-.159.205,0v1.615a1.1,1.1,0,0,1-.207.554C260.908,287.946,260.842,287.979,260.806,287.945Z" transform="translate(-250.649 -285.556)"/>
          </g>
          <g id="Group_3314" data-name="Group 3314" transform="translate(26.23 74.084)">
            <ellipse id="Ellipse_7" data-name="Ellipse 7" cx="1.124" cy="0.601" rx="1.124" ry="0.601" transform="translate(0 2.149) rotate(-72.936)"/>
          </g>
          <g id="Group_3318" data-name="Group 3318" transform="translate(3.41 88.29)">
            <g id="Group_3315" data-name="Group 3315" transform="translate(0 3.754)">
              <path id="Path_407" data-name="Path 407" class="cls-7" d="M242,298.639a.07.07,0,0,1,.087,0,.153.153,0,0,1,.036.112v.492a.442.442,0,0,1-.034.161c-.022.058-.044.108-.065.153l-.658,1.448a.838.838,0,0,1,.367-.059.467.467,0,0,1,.283.126.707.707,0,0,1,.18.315,1.745,1.745,0,0,1,.064.5,2.609,2.609,0,0,1-.094.7,2.681,2.681,0,0,1-.256.624,2.639,2.639,0,0,1-.388.521,2.124,2.124,0,0,1-.485.385,1.375,1.375,0,0,1-.548.2.644.644,0,0,1-.388-.071.564.564,0,0,1-.236-.273,1.155,1.155,0,0,1-.095-.4.3.3,0,0,1,.034-.155.226.226,0,0,1,.087-.1l.356-.207a.058.058,0,0,1,.075,0,.306.306,0,0,1,.06.095.394.394,0,0,0,.071.113.242.242,0,0,0,.121.063.394.394,0,0,0,.187-.015,1.342,1.342,0,0,0,.719-.55,1.072,1.072,0,0,0,.169-.581c0-.207-.057-.324-.169-.349a.663.663,0,0,0-.444.122l-.374.217a.065.065,0,0,1-.085-.007.145.145,0,0,1-.037-.109v-.495a.412.412,0,0,1,.033-.161c.022-.055.044-.107.065-.151l.63-1.384-1.243.717a.065.065,0,0,1-.086,0,.153.153,0,0,1-.036-.112v-.491a.365.365,0,0,1,.036-.154.248.248,0,0,1,.086-.106Z" transform="translate(-239.77 -298.626)"/>
            </g>
            <g id="Group_3316" data-name="Group 3316" transform="translate(2.938 2.404)">
              <path id="Path_408" data-name="Path 408" class="cls-7" d="M244.591,298.89c0,.085,0,.182,0,.288s0,.215,0,.327,0,.219,0,.325,0,.2,0,.294a5.608,5.608,0,0,1-.08.791,3.193,3.193,0,0,1-.207.716,2.377,2.377,0,0,1-.369.608,2.03,2.03,0,0,1-.556.464,1.068,1.068,0,0,1-.559.181.492.492,0,0,1-.368-.183,1.092,1.092,0,0,1-.207-.477,3.885,3.885,0,0,1-.079-.7c-.006-.174-.01-.37-.01-.594s0-.427.01-.605a5.831,5.831,0,0,1,.079-.8,3.232,3.232,0,0,1,.208-.727,2.515,2.515,0,0,1,.367-.618,1.976,1.976,0,0,1,.559-.473,1.064,1.064,0,0,1,.556-.178.491.491,0,0,1,.37.183,1.1,1.1,0,0,1,.206.476A4.052,4.052,0,0,1,244.591,298.89Zm-1.816,2.248a1.4,1.4,0,0,0,.156.683c.089.132.236.138.447.016a1,1,0,0,0,.449-.534,2.767,2.767,0,0,0,.155-.863c.006-.177.01-.375.009-.587s0-.4-.007-.577a1.417,1.417,0,0,0-.156-.684c-.089-.132-.239-.135-.448-.016a1.008,1.008,0,0,0-.448.533,2.8,2.8,0,0,0-.156.865c-.006.177-.009.374-.009.587S242.77,300.966,242.775,301.138Z" transform="translate(-242.157 -297.529)"/>
            </g>
            <g id="Group_3317" data-name="Group 3317" transform="translate(5.809)">
              <path id="Path_409" data-name="Path 409" class="cls-7" d="M245.169,296.85a.518.518,0,0,1,.289-.089.3.3,0,0,1,.2.079.444.444,0,0,1,.127.2,1.153,1.153,0,0,1,.052.284c.006.117.01.246.01.38s0,.267-.01.39a1.807,1.807,0,0,1-.052.347,1.674,1.674,0,0,1-.126.35,1.483,1.483,0,0,1-.206.314,1.1,1.1,0,0,1-.288.238.594.594,0,0,1-.289.1.325.325,0,0,1-.2-.076.456.456,0,0,1-.127-.207,1.132,1.132,0,0,1-.05-.285c-.007-.116-.01-.244-.01-.38s0-.266.009-.389a2.012,2.012,0,0,1,.052-.346,1.594,1.594,0,0,1,.127-.351,1.524,1.524,0,0,1,.206-.315A1.011,1.011,0,0,1,245.169,296.85Zm.239,1.43a.931.931,0,0,0,.006-.134c0-.062,0-.124,0-.187s0-.128,0-.188,0-.1,0-.129a.391.391,0,0,0-.059-.2c-.032-.047-.092-.046-.18,0a.4.4,0,0,0-.181.2.914.914,0,0,0-.059.27c0,.028,0,.075-.006.135s0,.122,0,.19,0,.127,0,.185a1.184,1.184,0,0,0,.007.128.394.394,0,0,0,.058.2c.033.044.094.043.18-.007a.4.4,0,0,0,.181-.2A.872.872,0,0,0,245.408,298.28Zm1.569-2.306a.826.826,0,0,1,.065-.135.261.261,0,0,1,.1-.09l.271-.158c.034-.018.059-.02.079-.006s.03.041.03.082a.173.173,0,0,1,0,.039.3.3,0,0,1-.015.048l-2.225,5.795a.917.917,0,0,1-.065.134.265.265,0,0,1-.1.09l-.271.157c-.033.02-.058.021-.078.006a.094.094,0,0,1-.031-.082.383.383,0,0,1,.006-.038.213.213,0,0,1,.014-.049Zm.144,2.186a.553.553,0,0,1,.289-.091.342.342,0,0,1,.2.079.462.462,0,0,1,.126.206,1.1,1.1,0,0,1,.053.287c0,.116.009.244.009.379s0,.266-.01.391a1.881,1.881,0,0,1-.05.345,1.791,1.791,0,0,1-.127.351,1.553,1.553,0,0,1-.2.313,1.1,1.1,0,0,1-.289.237.59.59,0,0,1-.288.1.319.319,0,0,1-.206-.076.448.448,0,0,1-.125-.2,1.161,1.161,0,0,1-.053-.287c0-.117-.009-.242-.007-.379s0-.268.009-.391a1.865,1.865,0,0,1,.05-.345,1.718,1.718,0,0,1,.127-.352,1.689,1.689,0,0,1,.206-.315A1.033,1.033,0,0,1,247.121,298.159Zm.239,1.43a1.274,1.274,0,0,0,0-.135c0-.059,0-.122,0-.188v-.186a1.1,1.1,0,0,0,0-.13.384.384,0,0,0-.058-.2c-.034-.046-.094-.043-.181.007a.388.388,0,0,0-.18.2.869.869,0,0,0-.059.27c0,.03,0,.075-.006.137s0,.123,0,.188,0,.127,0,.185,0,.1.006.13a.4.4,0,0,0,.058.2c.034.044.094.043.181-.007a.4.4,0,0,0,.18-.2A.844.844,0,0,0,247.36,299.589Z" transform="translate(-244.49 -295.576)"/>
            </g>
          </g>
          <g id="Group_3322" data-name="Group 3322" class="cls-12" transform="translate(3.41 88.29)">
            <g id="Group_3319" data-name="Group 3319" transform="translate(0 3.754)">
              <path id="Path_410" data-name="Path 410" class="cls-4" d="M242,298.639a.07.07,0,0,1,.087,0,.153.153,0,0,1,.036.112v.492a.442.442,0,0,1-.034.161c-.022.058-.044.108-.065.153l-.658,1.448a.838.838,0,0,1,.367-.059.467.467,0,0,1,.283.126.707.707,0,0,1,.18.315,1.745,1.745,0,0,1,.064.5,2.609,2.609,0,0,1-.094.7,2.681,2.681,0,0,1-.256.624,2.639,2.639,0,0,1-.388.521,2.124,2.124,0,0,1-.485.385,1.375,1.375,0,0,1-.548.2.644.644,0,0,1-.388-.071.564.564,0,0,1-.236-.273,1.155,1.155,0,0,1-.095-.4.3.3,0,0,1,.034-.155.226.226,0,0,1,.087-.1l.356-.207a.058.058,0,0,1,.075,0,.306.306,0,0,1,.06.095.394.394,0,0,0,.071.113.242.242,0,0,0,.121.063.394.394,0,0,0,.187-.015,1.342,1.342,0,0,0,.719-.55,1.072,1.072,0,0,0,.169-.581c0-.207-.057-.324-.169-.349a.663.663,0,0,0-.444.122l-.374.217a.065.065,0,0,1-.085-.007.145.145,0,0,1-.037-.109v-.495a.412.412,0,0,1,.033-.161c.022-.055.044-.107.065-.151l.63-1.384-1.243.717a.065.065,0,0,1-.086,0,.153.153,0,0,1-.036-.112v-.491a.365.365,0,0,1,.036-.154.248.248,0,0,1,.086-.106Z" transform="translate(-239.77 -298.626)"/>
            </g>
            <g id="Group_3320" data-name="Group 3320" transform="translate(2.938 2.404)">
              <path id="Path_411" data-name="Path 411" class="cls-4" d="M244.591,298.89c0,.085,0,.182,0,.288s0,.215,0,.327,0,.219,0,.325,0,.2,0,.294a5.608,5.608,0,0,1-.08.791,3.193,3.193,0,0,1-.207.716,2.377,2.377,0,0,1-.369.608,2.03,2.03,0,0,1-.556.464,1.068,1.068,0,0,1-.559.181.492.492,0,0,1-.368-.183,1.092,1.092,0,0,1-.207-.477,3.885,3.885,0,0,1-.079-.7c-.006-.174-.01-.37-.01-.594s0-.427.01-.605a5.831,5.831,0,0,1,.079-.8,3.232,3.232,0,0,1,.208-.727,2.515,2.515,0,0,1,.367-.618,1.976,1.976,0,0,1,.559-.473,1.064,1.064,0,0,1,.556-.178.491.491,0,0,1,.37.183,1.1,1.1,0,0,1,.206.476A4.052,4.052,0,0,1,244.591,298.89Zm-1.816,2.248a1.4,1.4,0,0,0,.156.683c.089.132.236.138.447.016a1,1,0,0,0,.449-.534,2.767,2.767,0,0,0,.155-.863c.006-.177.01-.375.009-.587s0-.4-.007-.577a1.417,1.417,0,0,0-.156-.684c-.089-.132-.239-.135-.448-.016a1.008,1.008,0,0,0-.448.533,2.8,2.8,0,0,0-.156.865c-.006.177-.009.374-.009.587S242.77,300.966,242.775,301.138Z" transform="translate(-242.157 -297.529)"/>
            </g>
            <g id="Group_3321" data-name="Group 3321" transform="translate(5.809)">
              <path id="Path_412" data-name="Path 412" class="cls-4" d="M245.169,296.85a.518.518,0,0,1,.289-.089.3.3,0,0,1,.2.079.444.444,0,0,1,.127.2,1.153,1.153,0,0,1,.052.284c.006.117.01.246.01.38s0,.267-.01.39a1.807,1.807,0,0,1-.052.347,1.674,1.674,0,0,1-.126.35,1.483,1.483,0,0,1-.206.314,1.1,1.1,0,0,1-.288.238.594.594,0,0,1-.289.1.325.325,0,0,1-.2-.076.456.456,0,0,1-.127-.207,1.132,1.132,0,0,1-.05-.285c-.007-.116-.01-.244-.01-.38s0-.266.009-.389a2.012,2.012,0,0,1,.052-.346,1.594,1.594,0,0,1,.127-.351,1.524,1.524,0,0,1,.206-.315A1.011,1.011,0,0,1,245.169,296.85Zm.239,1.43a.931.931,0,0,0,.006-.134c0-.062,0-.124,0-.187s0-.128,0-.188,0-.1,0-.129a.391.391,0,0,0-.059-.2c-.032-.047-.092-.046-.18,0a.4.4,0,0,0-.181.2.914.914,0,0,0-.059.27c0,.028,0,.075-.006.135s0,.122,0,.19,0,.127,0,.185a1.184,1.184,0,0,0,.007.128.394.394,0,0,0,.058.2c.033.044.094.043.18-.007a.4.4,0,0,0,.181-.2A.872.872,0,0,0,245.408,298.28Zm1.569-2.306a.826.826,0,0,1,.065-.135.261.261,0,0,1,.1-.09l.271-.158c.034-.018.059-.02.079-.006s.03.041.03.082a.173.173,0,0,1,0,.039.3.3,0,0,1-.015.048l-2.225,5.795a.917.917,0,0,1-.065.134.265.265,0,0,1-.1.09l-.271.157c-.033.02-.058.021-.078.006a.094.094,0,0,1-.031-.082.383.383,0,0,1,.006-.038.213.213,0,0,1,.014-.049Zm.144,2.186a.553.553,0,0,1,.289-.091.342.342,0,0,1,.2.079.462.462,0,0,1,.126.206,1.1,1.1,0,0,1,.053.287c0,.116.009.244.009.379s0,.266-.01.391a1.881,1.881,0,0,1-.05.345,1.791,1.791,0,0,1-.127.351,1.553,1.553,0,0,1-.2.313,1.1,1.1,0,0,1-.289.237.59.59,0,0,1-.288.1.319.319,0,0,1-.206-.076.448.448,0,0,1-.125-.2,1.161,1.161,0,0,1-.053-.287c0-.117-.009-.242-.007-.379s0-.268.009-.391a1.865,1.865,0,0,1,.05-.345,1.718,1.718,0,0,1,.127-.352,1.689,1.689,0,0,1,.206-.315A1.033,1.033,0,0,1,247.121,298.159Zm.239,1.43a1.274,1.274,0,0,0,0-.135c0-.059,0-.122,0-.188v-.186a1.1,1.1,0,0,0,0-.13.384.384,0,0,0-.058-.2c-.034-.046-.094-.043-.181.007a.388.388,0,0,0-.18.2.869.869,0,0,0-.059.27c0,.03,0,.075-.006.137s0,.123,0,.188,0,.127,0,.185,0,.1.006.13a.4.4,0,0,0,.058.2c.034.044.094.043.181-.007a.4.4,0,0,0,.18-.2A.844.844,0,0,0,247.36,299.589Z" transform="translate(-244.49 -295.576)"/>
            </g>
          </g>
          <g id="Group_3326" data-name="Group 3326" transform="translate(61.923 61.96)">
            <g id="Group_3323" data-name="Group 3323" transform="translate(0 3.738)">
              <path id="Path_413" data-name="Path 413" class="cls-7" d="M287.344,279.671a.19.19,0,0,1-.025-.124.381.381,0,0,1,.048-.153l.978-1.751q.035-.063.074-.122a.247.247,0,0,1,.082-.087l.352-.2a.063.063,0,0,1,.085.007.145.145,0,0,1,.037.111v4.482a.361.361,0,0,1-.037.153.229.229,0,0,1-.085.1l-.364.21a.066.066,0,0,1-.086,0,.148.148,0,0,1-.037-.111v-3.428l-.639,1.14a.193.193,0,0,1-.089.09.069.069,0,0,1-.082-.026Z" transform="translate(-287.318 -277.218)"/>
            </g>
            <g id="Group_3324" data-name="Group 3324" transform="translate(2.216 2.405)">
              <path id="Path_414" data-name="Path 414" class="cls-7" d="M291.551,277.495c0,.086.006.181,0,.288s0,.214,0,.326v.326c0,.106,0,.2,0,.294a5.947,5.947,0,0,1-.079.79,3.2,3.2,0,0,1-.208.717,2.4,2.4,0,0,1-.369.608,2.012,2.012,0,0,1-.556.465,1.05,1.05,0,0,1-.559.178.472.472,0,0,1-.367-.183,1.088,1.088,0,0,1-.208-.476,4.034,4.034,0,0,1-.079-.7c-.006-.17-.009-.369-.009-.593s0-.427.009-.605a6.252,6.252,0,0,1,.079-.8,3.349,3.349,0,0,1,.207-.726,2.513,2.513,0,0,1,.368-.618,2,2,0,0,1,.559-.473,1.072,1.072,0,0,1,.556-.178.49.49,0,0,1,.369.183,1.082,1.082,0,0,1,.208.475A3.954,3.954,0,0,1,291.551,277.495Zm-1.814,2.247a1.393,1.393,0,0,0,.154.684c.09.133.239.137.449.016a1,1,0,0,0,.448-.534,2.79,2.79,0,0,0,.155-.863c.006-.18.009-.375.01-.588s0-.4-.01-.576a1.4,1.4,0,0,0-.155-.685c-.089-.132-.238-.135-.448-.014a1,1,0,0,0-.448.532,2.8,2.8,0,0,0-.155.863c-.007.181-.01.377-.01.589S289.729,279.571,289.737,279.742Z" transform="translate(-289.119 -276.135)"/>
            </g>
            <g id="Group_3325" data-name="Group 3325" transform="translate(5.086)">
              <path id="Path_415" data-name="Path 415" class="cls-7" d="M292.132,275.454a.536.536,0,0,1,.288-.089.321.321,0,0,1,.205.079.442.442,0,0,1,.126.2,1.058,1.058,0,0,1,.052.287c.007.117.01.244.01.379s0,.266-.01.39a1.883,1.883,0,0,1-.052.346,1.692,1.692,0,0,1-.126.352,1.492,1.492,0,0,1-.205.313,1.154,1.154,0,0,1-.288.237.6.6,0,0,1-.288.095.3.3,0,0,1-.2-.076.455.455,0,0,1-.128-.2,1.151,1.151,0,0,1-.052-.287c0-.117-.009-.244-.009-.38s0-.265.01-.39a1.88,1.88,0,0,1,.05-.345,1.691,1.691,0,0,1,.127-.351,1.507,1.507,0,0,1,.206-.315A1.059,1.059,0,0,1,292.132,275.454Zm.239,1.43c0-.028,0-.073,0-.134v-.186c0-.066,0-.129,0-.188s0-.1,0-.128a.372.372,0,0,0-.059-.2c-.032-.046-.092-.043-.18.006a.406.406,0,0,0-.181.2.891.891,0,0,0-.058.268c0,.031,0,.075-.007.135s0,.124,0,.19,0,.127,0,.186,0,.1.007.128a.377.377,0,0,0,.059.2c.032.047.092.043.18-.007a.4.4,0,0,0,.18-.2A.877.877,0,0,0,292.37,276.884Zm1.568-2.3a.955.955,0,0,1,.065-.137.275.275,0,0,1,.1-.09l.27-.155c.034-.02.06-.022.08-.009a.1.1,0,0,1,.03.085.345.345,0,0,1,0,.037.285.285,0,0,1-.014.048l-2.226,5.8a1.151,1.151,0,0,1-.064.134.306.306,0,0,1-.1.091l-.269.155a.073.073,0,0,1-.08.009.1.1,0,0,1-.028-.085l0-.037a.5.5,0,0,1,.014-.049Zm.144,2.186a.55.55,0,0,1,.289-.091.324.324,0,0,1,.205.079.448.448,0,0,1,.126.207,1.111,1.111,0,0,1,.052.284c.006.117.009.242.009.379s0,.268-.009.391a2.026,2.026,0,0,1-.052.346,1.71,1.71,0,0,1-.127.348,1.487,1.487,0,0,1-.2.313,1.133,1.133,0,0,1-.288.241.6.6,0,0,1-.289.092.3.3,0,0,1-.2-.076.433.433,0,0,1-.127-.2,1.153,1.153,0,0,1-.052-.284c-.006-.119-.01-.244-.009-.383s0-.265.007-.388a2.084,2.084,0,0,1,.053-.347,1.71,1.71,0,0,1,.126-.351,1.612,1.612,0,0,1,.206-.315A1.008,1.008,0,0,1,294.082,276.764Zm.239,1.43a1.232,1.232,0,0,0,0-.134c0-.062,0-.124,0-.188v-.188a1.055,1.055,0,0,0,0-.128.376.376,0,0,0-.058-.2c-.033-.046-.094-.043-.18.007a.4.4,0,0,0-.181.2.87.87,0,0,0-.059.268c0,.031,0,.075-.007.138s0,.123,0,.187,0,.128,0,.187,0,.1.006.128a.389.389,0,0,0,.059.2c.032.046.092.043.181-.009a.4.4,0,0,0,.18-.2A.8.8,0,0,0,294.321,278.194Z" transform="translate(-291.451 -274.18)"/>
            </g>
          </g>
          <g id="Group_3330" data-name="Group 3330" class="cls-8" transform="translate(61.923 61.96)">
            <g id="Group_3327" data-name="Group 3327" transform="translate(0 3.738)">
              <path id="Path_416" data-name="Path 416" class="cls-4" d="M287.344,279.671a.19.19,0,0,1-.025-.124.381.381,0,0,1,.048-.153l.978-1.751q.035-.063.074-.122a.247.247,0,0,1,.082-.087l.352-.2a.063.063,0,0,1,.085.007.145.145,0,0,1,.037.111v4.482a.361.361,0,0,1-.037.153.229.229,0,0,1-.085.1l-.364.21a.066.066,0,0,1-.086,0,.148.148,0,0,1-.037-.111v-3.428l-.639,1.14a.193.193,0,0,1-.089.09.069.069,0,0,1-.082-.026Z" transform="translate(-287.318 -277.218)"/>
            </g>
            <g id="Group_3328" data-name="Group 3328" transform="translate(2.216 2.405)">
              <path id="Path_417" data-name="Path 417" class="cls-4" d="M291.551,277.495c0,.086.006.181,0,.288s0,.214,0,.326v.326c0,.106,0,.2,0,.294a5.947,5.947,0,0,1-.079.79,3.2,3.2,0,0,1-.208.717,2.4,2.4,0,0,1-.369.608,2.012,2.012,0,0,1-.556.465,1.05,1.05,0,0,1-.559.178.472.472,0,0,1-.367-.183,1.088,1.088,0,0,1-.208-.476,4.034,4.034,0,0,1-.079-.7c-.006-.17-.009-.369-.009-.593s0-.427.009-.605a6.252,6.252,0,0,1,.079-.8,3.349,3.349,0,0,1,.207-.726,2.513,2.513,0,0,1,.368-.618,2,2,0,0,1,.559-.473,1.072,1.072,0,0,1,.556-.178.49.49,0,0,1,.369.183,1.082,1.082,0,0,1,.208.475A3.954,3.954,0,0,1,291.551,277.495Zm-1.814,2.247a1.393,1.393,0,0,0,.154.684c.09.133.239.137.449.016a1,1,0,0,0,.448-.534,2.79,2.79,0,0,0,.155-.863c.006-.18.009-.375.01-.588s0-.4-.01-.576a1.4,1.4,0,0,0-.155-.685c-.089-.132-.238-.135-.448-.014a1,1,0,0,0-.448.532,2.8,2.8,0,0,0-.155.863c-.007.181-.01.377-.01.589S289.729,279.571,289.737,279.742Z" transform="translate(-289.119 -276.135)"/>
            </g>
            <g id="Group_3329" data-name="Group 3329" transform="translate(5.086)">
              <path id="Path_418" data-name="Path 418" class="cls-4" d="M292.132,275.454a.536.536,0,0,1,.288-.089.321.321,0,0,1,.205.079.442.442,0,0,1,.126.2,1.058,1.058,0,0,1,.052.287c.007.117.01.244.01.379s0,.266-.01.39a1.883,1.883,0,0,1-.052.346,1.692,1.692,0,0,1-.126.352,1.492,1.492,0,0,1-.205.313,1.154,1.154,0,0,1-.288.237.6.6,0,0,1-.288.095.3.3,0,0,1-.2-.076.455.455,0,0,1-.128-.2,1.151,1.151,0,0,1-.052-.287c0-.117-.009-.244-.009-.38s0-.265.01-.39a1.88,1.88,0,0,1,.05-.345,1.691,1.691,0,0,1,.127-.351,1.507,1.507,0,0,1,.206-.315A1.059,1.059,0,0,1,292.132,275.454Zm.239,1.43c0-.028,0-.073,0-.134v-.186c0-.066,0-.129,0-.188s0-.1,0-.128a.372.372,0,0,0-.059-.2c-.032-.046-.092-.043-.18.006a.406.406,0,0,0-.181.2.891.891,0,0,0-.058.268c0,.031,0,.075-.007.135s0,.124,0,.19,0,.127,0,.186,0,.1.007.128a.377.377,0,0,0,.059.2c.032.047.092.043.18-.007a.4.4,0,0,0,.18-.2A.877.877,0,0,0,292.37,276.884Zm1.568-2.3a.955.955,0,0,1,.065-.137.275.275,0,0,1,.1-.09l.27-.155c.034-.02.06-.022.08-.009a.1.1,0,0,1,.03.085.345.345,0,0,1,0,.037.285.285,0,0,1-.014.048l-2.226,5.8a1.151,1.151,0,0,1-.064.134.306.306,0,0,1-.1.091l-.269.155a.073.073,0,0,1-.08.009.1.1,0,0,1-.028-.085l0-.037a.5.5,0,0,1,.014-.049Zm.144,2.186a.55.55,0,0,1,.289-.091.324.324,0,0,1,.205.079.448.448,0,0,1,.126.207,1.111,1.111,0,0,1,.052.284c.006.117.009.242.009.379s0,.268-.009.391a2.026,2.026,0,0,1-.052.346,1.71,1.71,0,0,1-.127.348,1.487,1.487,0,0,1-.2.313,1.133,1.133,0,0,1-.288.241.6.6,0,0,1-.289.092.3.3,0,0,1-.2-.076.433.433,0,0,1-.127-.2,1.153,1.153,0,0,1-.052-.284c-.006-.119-.01-.244-.009-.383s0-.265.007-.388a2.084,2.084,0,0,1,.053-.347,1.71,1.71,0,0,1,.126-.351,1.612,1.612,0,0,1,.206-.315A1.008,1.008,0,0,1,294.082,276.764Zm.239,1.43a1.232,1.232,0,0,0,0-.134c0-.062,0-.124,0-.188v-.188a1.055,1.055,0,0,0,0-.128.376.376,0,0,0-.058-.2c-.033-.046-.094-.043-.18.007a.4.4,0,0,0-.181.2.87.87,0,0,0-.059.268c0,.031,0,.075-.007.138s0,.123,0,.187,0,.128,0,.187,0,.1.006.128a.389.389,0,0,0,.059.2c.032.046.092.043.181-.009a.4.4,0,0,0,.18-.2A.8.8,0,0,0,294.321,278.194Z" transform="translate(-291.451 -274.18)"/>
            </g>
          </g>
          <g id="Group_3331" data-name="Group 3331" transform="translate(38.181 73.068)">
            <path id="Path_419" data-name="Path 419" class="cls-11" d="M268.053,294.681a.146.146,0,0,1-.027-.1V293.6a1.115,1.115,0,0,1,.207-.554c.116-.157.208-.159.207,0v.821l.333-.191c.1-.06.134.064.075.273a.92.92,0,0,1-.282.481l-.437.252C268.1,294.7,268.072,294.7,268.053,294.681Zm1.511-.872c-.036-.034-.038-.135,0-.276a.927.927,0,0,1,.282-.481l1.074-.62c.1-.062.134.065.076.274a.928.928,0,0,1-.282.481l-1.074.62C269.608,293.827,269.582,293.826,269.564,293.809Zm-1.511-1.761a.135.135,0,0,1-.028-.1v-1.654a1.131,1.131,0,0,1,.207-.554c.116-.158.208-.159.207,0v1.654a1.1,1.1,0,0,1-.207.554C268.155,292.049,268.089,292.082,268.053,292.048Zm3.66.521c-.036-.034-.039-.135,0-.276a.927.927,0,0,1,.282-.481l1.074-.62c.1-.06.134.063.075.273a.917.917,0,0,1-.282.481l-1.073.621C271.756,292.587,271.732,292.585,271.713,292.568Zm-3.66-3.828a.139.139,0,0,1-.027-.1v-1.654a1.112,1.112,0,0,1,.207-.554c.114-.156.207-.157.206,0v1.653a1.1,1.1,0,0,1-.207.554C268.155,288.741,268.089,288.774,268.053,288.74Zm5.808,2.588c-.037-.034-.039-.135,0-.276a.92.92,0,0,1,.282-.481l1.073-.618c.1-.06.133.065.076.273a.93.93,0,0,1-.282.481l-1.074.618C273.9,291.345,273.879,291.344,273.862,291.328Zm2.146-1.239c-.036-.034-.038-.135,0-.276a.922.922,0,0,1,.282-.481l1.074-.62c.1-.059.133.066.075.274a.918.918,0,0,1-.282.48l-1.074.62C276.051,290.106,276.026,290.1,276.008,290.088Zm2.149-1.24c-.036-.034-.038-.135,0-.276a.927.927,0,0,1,.282-.481l1.073-.62c.1-.061.134.062.076.273a.922.922,0,0,1-.282.481l-1.074.62C278.2,288.865,278.175,288.865,278.157,288.848Z" transform="translate(-268.025 -282.49)"/>
            <path id="Path_420" data-name="Path 420" class="cls-11" d="M278.009,287.625c-.036-.034-.038-.135,0-.276a.928.928,0,0,1,.282-.481l1.074-.62c.1-.061.134.063.075.274a.91.91,0,0,1-.282.48l-1.073.621C278.052,287.643,278.028,287.642,278.009,287.625Z" transform="translate(-265.729 -282.509)"/>
            <path id="Path_421" data-name="Path 421" class="cls-11" d="M279.755,286.617c-.036-.034-.039-.135,0-.276a.922.922,0,0,1,.282-.481l1.074-.62c.1-.061.134.062.075.273a.922.922,0,0,1-.282.481l-1.074.62C279.8,286.634,279.773,286.634,279.755,286.617Z" transform="translate(-265.327 -282.741)"/>
            <path id="Path_422" data-name="Path 422" class="cls-11" d="M281.5,285.608c-.036-.034-.038-.135,0-.276a.92.92,0,0,1,.283-.481l1.073-.62c.1-.062.134.063.076.273a.925.925,0,0,1-.282.481l-1.074.621C281.543,285.626,281.519,285.625,281.5,285.608Z" transform="translate(-264.924 -282.974)"/>
            <path id="Path_423" data-name="Path 423" class="cls-11" d="M283.246,284.6c-.036-.034-.039-.134,0-.274a.917.917,0,0,1,.282-.481l1.074-.621c.1-.06.134.063.075.274a.928.928,0,0,1-.282.481l-1.074.62C283.288,284.617,283.264,284.616,283.246,284.6Z" transform="translate(-264.521 -283.207)"/>
          </g>
          <g id="Group_3332" data-name="Group 3332" transform="translate(0 59.569)">
            <path id="Path_424" data-name="Path 424" class="cls-11" d="M237.91,281.777l12.333-7.227a2.037,2.037,0,0,0,.863-1.6c0-.605-.379-.879-.85-.609L237.8,279.448a1.957,1.957,0,0,0-.8,1.66C237.027,281.756,237.435,282.055,237.91,281.777Z" transform="translate(-236.999 -272.237)"/>
          </g>
          <g id="Group_3333" data-name="Group 3333" transform="translate(0.848 95.538)">
            <path id="Path_425" data-name="Path 425" class="cls-11" d="M238.6,311.006l12.333-7.227a2.035,2.035,0,0,0,.864-1.6c0-.605-.379-.879-.852-.608l-12.45,7.107a1.956,1.956,0,0,0-.8,1.66C237.718,310.985,238.125,311.284,238.6,311.006Z" transform="translate(-237.688 -301.466)"/>
          </g>
          <g id="Group_3334" data-name="Group 3334" transform="translate(59.102 68.797)">
            <path id="Path_426" data-name="Path 426" class="cls-11" d="M285.937,289.276l12.333-7.227a2.037,2.037,0,0,0,.863-1.6c0-.605-.378-.879-.85-.609l-12.451,7.108a1.957,1.957,0,0,0-.8,1.66C285.056,289.255,285.462,289.554,285.937,289.276Z" transform="translate(-285.026 -279.736)"/>
          </g>
          <g id="Group_3335" data-name="Group 3335" transform="translate(62.854 26.323)">
            <path id="Path_427" data-name="Path 427" class="cls-11" d="M288.987,254.759l12.332-7.227a2.035,2.035,0,0,0,.864-1.6c0-.605-.379-.877-.852-.608l-12.45,7.108a1.956,1.956,0,0,0-.8,1.659C288.1,254.739,288.512,255.038,288.987,254.759Z" transform="translate(-288.075 -245.22)"/>
          </g>
          <path id="Path_428" data-name="Path 428" class="cls-7" d="M252.981,245.765a5.715,5.715,0,0,1,2.664-4.424l29.662-17.126c1.472-.849,2.664-.246,2.664,1.349a5.712,5.712,0,0,1-2.663,4.424l-29.664,17.125C254.175,247.962,252.981,247.359,252.981,245.765Z" transform="translate(-233.313 -223.83)"/>
        </g>
      </g>
    </g>
    <g id="Chart_2" data-name="Chart 2" transform="translate(79.062 305.968)">
      <g id="Window_Chart-2" data-name="Window Chart" transform="translate(0)">
        <g id="Window-2" data-name="Window">
          <path id="Path_429" data-name="Path 429" class="cls-5" d="M239.428,253.486a4.061,4.061,0,0,0-4.232.345L74.287,346.559a12.879,12.879,0,0,0-5.822,10.092v8.4l.016.016-.025-.015v80.522a6.613,6.613,0,0,0,.057.852,6.185,6.185,0,0,0,3.047,4.522l6.152,3.559.3.17a3.99,3.99,0,0,1-2.093-3.513l-.006-78.5V360.883a12.93,12.93,0,0,1,5.84-10.111l160.89-92.728a4.238,4.238,0,0,1,3.926-.5C245.326,256.9,240.481,254.119,239.428,253.486Z" transform="translate(-68.456 -253.041)"/>
          <path id="Path_430" data-name="Path 430" d="M247.049,259.9a2.419,2.419,0,0,0-.095-.535.129.129,0,0,0-.02-.116,2.013,2.013,0,0,0-.134-.517,2.662,2.662,0,0,0-.345-.747,1.018,1.018,0,0,0-.192-.306.888.888,0,0,0-.172-.21,1.79,1.79,0,0,0-.383-.383l-.038-.038a2.624,2.624,0,0,0-.5-.288,4.236,4.236,0,0,0-3.924.5L80.357,349.982a12.93,12.93,0,0,0-5.84,10.111l0,90.28h0a3.991,3.991,0,0,0,5.987,3.454l160.74-92.737a12.9,12.9,0,0,0,5.84-10.112V260.625C247.089,260.376,247.069,260.127,247.049,259.9Z" transform="translate(-67.058 -252.251)"/>
          <path id="Path_431" data-name="Path 431" class="cls-6" d="M242.308,258.05,81.425,350.776a11.993,11.993,0,0,0-4.11,4.33L69.9,350.813a11.665,11.665,0,0,1,4.06-4.26l160.9-92.726a4.1,4.1,0,0,1,4.238-.346c1.046.642,5.89,3.394,7.12,4.055A4.221,4.221,0,0,0,242.308,258.05Z" transform="translate(-68.123 -253.041)"/>
        </g>
        <g id="Chart-2" data-name="Chart" transform="translate(15.566 24.09)">
          <g id="Group_3336" data-name="Group 3336" transform="translate(16.807)">
            <path id="Path_432" data-name="Path 432" class="cls-13" d="M95.158,351.492a.4.4,0,0,1-.2-.74L230.2,272.669a.4.4,0,1,1,.4.687L95.356,351.439A.4.4,0,0,1,95.158,351.492Z" transform="translate(-94.762 -272.617)"/>
          </g>
          <g id="Group_3337" data-name="Group 3337" transform="translate(16.807 14.873)">
            <path id="Path_433" data-name="Path 433" class="cls-13" d="M95.158,363.578a.4.4,0,0,1-.343-.2.4.4,0,0,1,.145-.543L230.2,284.755a.4.4,0,0,1,.4.688L95.356,363.525A.4.4,0,0,1,95.158,363.578Z" transform="translate(-94.762 -284.703)"/>
          </g>
          <g id="Group_3338" data-name="Group 3338" transform="translate(16.807 29.746)">
            <path id="Path_434" data-name="Path 434" class="cls-13" d="M95.158,375.664a.4.4,0,0,1-.343-.2.4.4,0,0,1,.145-.543l135.245-78.083a.4.4,0,0,1,.4.687L95.356,375.611A.4.4,0,0,1,95.158,375.664Z" transform="translate(-94.762 -296.789)"/>
          </g>
          <g id="Group_3339" data-name="Group 3339" transform="translate(16.807 44.62)">
            <path id="Path_435" data-name="Path 435" class="cls-13" d="M95.158,387.75a.4.4,0,0,1-.343-.2.4.4,0,0,1,.145-.543l135.245-78.083a.4.4,0,0,1,.541.145.4.4,0,0,1-.145.541L95.356,387.7A.4.4,0,0,1,95.158,387.75Z" transform="translate(-94.762 -308.876)"/>
          </g>
          <g id="Group_3340" data-name="Group 3340" transform="translate(16.807 59.493)">
            <path id="Path_436" data-name="Path 436" class="cls-14" d="M95.158,399.836a.4.4,0,0,1-.343-.2.4.4,0,0,1,.145-.543l135.245-78.083a.4.4,0,0,1,.541.145.4.4,0,0,1-.145.541L95.356,399.783A.4.4,0,0,1,95.158,399.836Z" transform="translate(-94.762 -320.962)"/>
          </g>
          <g id="Group_3345" data-name="Group 3345" transform="translate(22.114 24.471)">
            <g id="Group_3341" data-name="Group 3341" transform="translate(0 66.892)">
              <path id="Path_437" data-name="Path 437" class="cls-7" d="M99.075,369.082a3.794,3.794,0,0,1,1.715-2.973l3.008-1.736c.948-.548,1.715-.1,1.715.991V382.5l-6.438,3.719Z" transform="translate(-99.075 -342.875)"/>
              <path id="Path_438" data-name="Path 438" class="cls-7" d="M106.626,351.8a3.8,3.8,0,0,1,1.717-2.973l3.006-1.736c.949-.546,1.717-.1,1.717.992v33.03l-6.44,3.718Z" transform="translate(-97.334 -346.86)"/>
              <path id="Path_439" data-name="Path 439" class="cls-7" d="M114.178,357.766a3.789,3.789,0,0,1,1.717-2.972l3.006-1.736c.948-.548,1.717-.1,1.717.991v20.327l-6.44,3.719Z" transform="translate(-95.592 -345.485)"/>
              <path id="Path_441" data-name="Path 441" class="cls-9" d="M106.626,351.8a3.8,3.8,0,0,1,1.717-2.973l3.006-1.736c.949-.546,1.717-.1,1.717.992v33.03l-6.44,3.718Z" transform="translate(-97.334 -346.86)"/>
            </g>
            <g id="Group_3342" data-name="Group 3342" transform="translate(33.24 24.338)">
              <path id="Path_442" data-name="Path 442" class="cls-7" d="M126.086,345.462a3.792,3.792,0,0,1,1.715-2.972l3.008-1.736c.948-.548,1.717-.1,1.717.991v27.008l-6.44,3.719Z" transform="translate(-126.086 -305.767)"/>
              <path id="Path_443" data-name="Path 443" class="cls-7" d="M133.637,338.084a3.8,3.8,0,0,1,1.717-2.972l3.008-1.736c.948-.548,1.715-.1,1.715.991V365.09l-6.44,3.719Z" transform="translate(-124.345 -307.469)"/>
              <path id="Path_444" data-name="Path 444" class="cls-7" d="M141.189,317.223a3.794,3.794,0,0,1,1.717-2.973l3.006-1.736c.948-.548,1.717-.1,1.717.991v51.032l-6.44,3.719Z" transform="translate(-122.603 -312.279)"/>
              <path id="Path_446" data-name="Path 446" class="cls-9" d="M133.637,338.084a3.8,3.8,0,0,1,1.717-2.972l3.008-1.736c.948-.548,1.715-.1,1.715.991V365.09l-6.44,3.719Z" transform="translate(-124.345 -307.469)"/>
            </g>
            <g id="Group_3343" data-name="Group 3343" transform="translate(66.479 25.601)">
              <path id="Path_447" data-name="Path 447" class="cls-7" d="M153.1,348.551a3.792,3.792,0,0,1,1.717-2.973l3.006-1.736c.948-.548,1.717-.1,1.717.991v4.013l-6.44,3.719Z" transform="translate(-153.097 -306.318)"/>
              <path id="Path_448" data-name="Path 448" class="cls-7" d="M160.649,318.249a3.8,3.8,0,0,1,1.715-2.973l3.008-1.736c.948-.546,1.715-.1,1.715.991v35.938l-6.438,3.719Z" transform="translate(-151.356 -313.306)"/>
              <path id="Path_449" data-name="Path 449" class="cls-7" d="M168.2,321.121a3.8,3.8,0,0,1,1.717-2.972l3.006-1.736c.949-.548,1.717-.1,1.717.991v27.039l-6.44,3.718Z" transform="translate(-149.614 -312.643)"/>
              <path id="Path_451" data-name="Path 451" class="cls-9" d="M160.649,318.249a3.8,3.8,0,0,1,1.715-2.973l3.008-1.736c.948-.546,1.715-.1,1.715.991v35.938l-6.438,3.719Z" transform="translate(-151.356 -313.306)"/>
            </g>
            <g id="Group_3344" data-name="Group 3344" transform="translate(99.719)">
              <path id="Path_452" data-name="Path 452" class="cls-7" d="M180.108,322.3a3.79,3.79,0,0,1,1.717-2.972l3.006-1.736c.949-.548,1.717-.1,1.717.991v17.132l-6.44,3.718Z" transform="translate(-180.108 -286.772)"/>
              <path id="Path_453" data-name="Path 453" class="cls-7" d="M187.66,297.445a3.791,3.791,0,0,1,1.715-2.972l3.008-1.736c.948-.548,1.717-.1,1.717.991v42.349l-6.44,3.719Z" transform="translate(-178.367 -292.502)"/>
              <path id="Path_454" data-name="Path 454" class="cls-7" d="M195.211,310.981a3.793,3.793,0,0,1,1.717-2.972l3.008-1.736c.948-.548,1.715-.1,1.715.991v20.327l-6.44,3.719Z" transform="translate(-176.625 -289.381)"/>
              <path id="Path_456" data-name="Path 456" class="cls-9" d="M187.66,297.445a3.791,3.791,0,0,1,1.715-2.972l3.008-1.736c.948-.548,1.717-.1,1.717.991v42.349l-6.44,3.719Z" transform="translate(-178.367 -292.502)"/>
            </g>
          </g>
          <path id="Path_457" data-name="Path 457" class="cls-14" d="M81.105,393.023a3.369,3.369,0,0,1,1.715-2.433l9.449-5.455c.948-.546,1.717-.345,1.717.452a3.371,3.371,0,0,1-1.717,2.433l-9.449,5.454C81.873,394.021,81.105,393.819,81.105,393.023Z" transform="translate(-81.105 -246.742)"/>
          <path id="Path_458" data-name="Path 458" class="cls-14" d="M81.105,370.023a3.365,3.365,0,0,1,1.715-2.433l9.449-5.455c.948-.548,1.717-.346,1.717.452a3.367,3.367,0,0,1-1.717,2.432l-9.449,5.455C81.873,371.021,81.105,370.819,81.105,370.023Z" transform="translate(-81.105 -252.046)"/>
          <path id="Path_459" data-name="Path 459" class="cls-14" d="M81.105,347.085a3.369,3.369,0,0,1,1.715-2.433l9.449-5.454c.948-.548,1.717-.346,1.717.45a3.367,3.367,0,0,1-1.717,2.433l-9.449,5.455C81.873,348.084,81.105,347.881,81.105,347.085Z" transform="translate(-81.105 -257.335)"/>
          <g id="Group_3346" data-name="Group 3346" transform="translate(17.879 131.637)">
            <path id="Path_460" data-name="Path 460" class="cls-14" d="M103.758,393.872a3.37,3.37,0,0,1,1.715-2.433l20-11.544c.948-.548,1.715-.346,1.715.452a3.369,3.369,0,0,1-1.715,2.433l-20,11.543C104.526,394.87,103.758,394.668,103.758,393.872Z" transform="translate(-93.761 -379.587)"/>
            <path id="Path_461" data-name="Path 461" class="cls-7" d="M100.633,395.555v-3.311c0-.679-.477-.955-1.066-.615L96.7,393.283a2.355,2.355,0,0,0-1.066,1.846v3.311c0,.679.477.955,1.066.615l2.867-1.655A2.357,2.357,0,0,0,100.633,395.555Z" transform="translate(-95.634 -376.843)"/>
          </g>
          <g id="Group_3348" data-name="Group 3348" transform="translate(67.79 102.829)">
            <path id="Path_462" data-name="Path 462" class="cls-14" d="M144.316,370.462a3.369,3.369,0,0,1,1.715-2.433l20-11.544c.948-.546,1.715-.345,1.715.452a3.369,3.369,0,0,1-1.715,2.433l-20,11.544C145.084,371.46,144.316,371.258,144.316,370.462Z" transform="translate(-134.319 -356.177)"/>
            <g id="Group_3347" data-name="Group 3347" transform="translate(0 14.639)">
              <path id="Path_463" data-name="Path 463" class="cls-7" d="M141.191,372.145v-3.311c0-.679-.477-.955-1.066-.615l-2.867,1.656a2.352,2.352,0,0,0-1.066,1.846v3.31c0,.681.477.955,1.066.615l2.867-1.655A2.357,2.357,0,0,0,141.191,372.145Z" transform="translate(-136.192 -368.073)"/>
              <path id="Path_464" data-name="Path 464" class="cls-15" d="M141.191,372.145v-3.311c0-.679-.477-.955-1.066-.615l-2.867,1.656a2.352,2.352,0,0,0-1.066,1.846v3.31c0,.681.477.955,1.066.615l2.867-1.655A2.357,2.357,0,0,0,141.191,372.145Z" transform="translate(-136.192 -368.073)"/>
            </g>
          </g>
          <g id="Group_3350" data-name="Group 3350" transform="translate(117.701 74.021)">
            <path id="Path_465" data-name="Path 465" class="cls-14" d="M184.874,347.052a3.364,3.364,0,0,1,1.717-2.432l19.995-11.544c.948-.548,1.715-.346,1.715.45a3.369,3.369,0,0,1-1.715,2.433L186.591,347.5C185.642,348.051,184.874,347.849,184.874,347.052Z" transform="translate(-174.877 -332.768)"/>
            <g id="Group_3349" data-name="Group 3349" transform="translate(0 14.639)">
              <path id="Path_466" data-name="Path 466" class="cls-7" d="M181.749,348.735v-3.31c0-.681-.477-.955-1.066-.615l-2.867,1.655a2.354,2.354,0,0,0-1.066,1.846v3.311c0,.679.477.955,1.066.615l2.867-1.656A2.355,2.355,0,0,0,181.749,348.735Z" transform="translate(-176.75 -344.664)"/>
            </g>
          </g>
        </g>
      </g>
    </g>
    <g id="Chart_1" data-name="Chart 1" transform="translate(79.062 23.522)">
      <g id="Window_Chart-3" data-name="Window Chart" transform="translate(0)">
        <g id="Window-3" data-name="Window">
          <path id="Path_468" data-name="Path 468" class="cls-5" d="M348.62,23.968a4.059,4.059,0,0,0-4.232.345L74.287,180.148a12.879,12.879,0,0,0-5.822,10.092v8.4l.016.016-.025-.015V371.516a6.613,6.613,0,0,0,.057.852,6.185,6.185,0,0,0,3.047,4.522l6.152,3.559.3.17A3.989,3.989,0,0,1,75.92,377.1l-.006-170.853h0V194.473a12.93,12.93,0,0,1,5.84-10.112L351.837,28.526a4.231,4.231,0,0,1,3.926-.5C354.518,27.376,349.672,24.6,348.62,23.968Z" transform="translate(-68.456 -23.522)"/>
          <path id="Path_469" data-name="Path 469" d="M356.242,30.378a2.367,2.367,0,0,0-.1-.537c.02-.038,0-.076-.018-.114a1.982,1.982,0,0,0-.134-.517,2.661,2.661,0,0,0-.345-.747,1.025,1.025,0,0,0-.192-.306.889.889,0,0,0-.172-.21,1.763,1.763,0,0,0-.383-.383l-.038-.039a2.616,2.616,0,0,0-.5-.287,4.231,4.231,0,0,0-3.926.5L80.357,183.571a12.93,12.93,0,0,0-5.84,10.112l0,182.632h0a3.991,3.991,0,0,0,5.987,3.454l269.93-155.844a12.9,12.9,0,0,0,5.84-10.112V31.106C356.28,30.856,356.261,30.608,356.242,30.378Z" transform="translate(-67.058 -22.732)"/>
          <path id="Path_470" data-name="Path 470" class="cls-6" d="M351.5,28.531,81.425,184.365a11.993,11.993,0,0,0-4.11,4.33L69.9,184.4a11.665,11.665,0,0,1,4.06-4.26L344.049,24.307a4.1,4.1,0,0,1,4.239-.345c1.046.641,5.89,3.394,7.119,4.055A4.215,4.215,0,0,0,351.5,28.531Z" transform="translate(-68.123 -23.522)"/>
        </g>
        <g id="Chart-3" data-name="Chart" transform="translate(27.83 36.158)">
          <g id="Group_3359" data-name="Group 3359" transform="translate(0 146.535)">
            <g id="Group_3351" data-name="Group 3351" transform="translate(0 3.454)">
              <path id="Path_471" data-name="Path 471" class="cls-14" d="M91.686,314.547a.616.616,0,0,1-.308-1.148l239.94-138.528a.615.615,0,0,1,.615,1.064L91.994,314.464A.609.609,0,0,1,91.686,314.547Z" transform="translate(-91.071 -174.786)"/>
            </g>
            <g id="Group_3352" data-name="Group 3352" transform="translate(0 139.211)">
              <path id="Path_472" data-name="Path 472" class="cls-14" d="M91.686,292.107a.615.615,0,0,1-.615-.615V285.72a.615.615,0,0,1,1.231,0v5.772A.615.615,0,0,1,91.686,292.107Z" transform="translate(-91.071 -285.105)"/>
            </g>
            <g id="Group_3353" data-name="Group 3353" transform="translate(39.991 116.009)">
              <path id="Path_473" data-name="Path 473" class="cls-14" d="M124.183,273.255a.616.616,0,0,1-.615-.615v-5.774a.615.615,0,1,1,1.231,0v5.774A.615.615,0,0,1,124.183,273.255Z" transform="translate(-123.568 -266.25)"/>
            </g>
            <g id="Group_3354" data-name="Group 3354" transform="translate(79.98 92.808)">
              <path id="Path_474" data-name="Path 474" class="cls-14" d="M156.679,254.4a.615.615,0,0,1-.615-.615v-5.772a.615.615,0,1,1,1.231,0v5.772A.614.614,0,0,1,156.679,254.4Z" transform="translate(-156.064 -247.397)"/>
            </g>
            <g id="Group_3355" data-name="Group 3355" transform="translate(119.97 69.605)">
              <path id="Path_475" data-name="Path 475" class="cls-14" d="M189.177,235.545a.616.616,0,0,1-.615-.615v-5.773a.615.615,0,0,1,1.231,0v5.773A.615.615,0,0,1,189.177,235.545Z" transform="translate(-188.56 -228.542)"/>
            </g>
            <g id="Group_3356" data-name="Group 3356" transform="translate(159.961 46.403)">
              <path id="Path_476" data-name="Path 476" class="cls-14" d="M221.672,216.69a.616.616,0,0,1-.615-.615V210.3a.615.615,0,0,1,1.231,0v5.771A.615.615,0,0,1,221.672,216.69Z" transform="translate(-221.057 -209.688)"/>
            </g>
            <g id="Group_3357" data-name="Group 3357" transform="translate(199.951 23.2)">
              <path id="Path_477" data-name="Path 477" class="cls-14" d="M254.169,197.836a.615.615,0,0,1-.615-.615v-5.773a.615.615,0,0,1,1.231,0v5.773A.616.616,0,0,1,254.169,197.836Z" transform="translate(-253.554 -190.833)"/>
            </g>
            <g id="Group_3358" data-name="Group 3358" transform="translate(239.942)">
              <path id="Path_478" data-name="Path 478" class="cls-14" d="M286.666,178.982a.614.614,0,0,1-.615-.615V172.6a.615.615,0,0,1,1.231,0v5.772A.615.615,0,0,1,286.666,178.982Z" transform="translate(-286.051 -171.98)"/>
            </g>
          </g>
          <path id="Path_479" data-name="Path 479" class="cls-7" d="M91.571,284.217c19.995-11.543,25,14.432,39.992,5.774s5-60.608,29.991-75.038,20,34.635,44.988,20.2,15-106.784,39.99-121.213,20,58.417,44.991,43.638,9.995-86.929,39.987-104.245l.006,138.528L91.573,330.393Z" transform="translate(-90.956 -52.804)"/>
          <path id="Path_481" data-name="Path 481" class="cls-7" d="M331.515,74.556V186.971L91.573,325.5V308.185l17.647-17.831c.357.886,1.268,1.132,2.35.517a5.529,5.529,0,0,0,2.5-4.332,1.776,1.776,0,0,0-.628-1.538l16.244-25.781a1.661,1.661,0,0,0,1.871-.1,5.246,5.246,0,0,0,1.994-2.3l16.01,4.615a4.7,4.7,0,0,0-.5,2.018c0,1.587,1.12,2.24,2.5,1.44a5.529,5.529,0,0,0,2.5-4.332,2.369,2.369,0,0,0-.258-1.132L169.31,241.5c.394.726,1.255.9,2.24.32a5.507,5.507,0,0,0,2.5-4.319,1.889,1.889,0,0,0-.517-1.44l16.022-23.123a1.6,1.6,0,0,0,1.994.012,5.548,5.548,0,0,0,2.5-4.332,2.713,2.713,0,0,0-.074-.652l15.149-13.13c.271,1.108,1.243,1.464,2.424.8a5.548,5.548,0,0,0,2.5-4.332,2.233,2.233,0,0,0-.271-1.132l15.53-17.942c.394.714,1.243.874,2.227.308a5.057,5.057,0,0,0,1.772-1.858l16.453,9.5a5.2,5.2,0,0,0-.726,2.461c0,1.6,1.12,2.24,2.5,1.452a5.548,5.548,0,0,0,2.5-4.332,2.713,2.713,0,0,0-.074-.652l15.149-13.13c.271,1.108,1.255,1.464,2.424.788a5.507,5.507,0,0,0,2.5-4.319,1.607,1.607,0,0,0-.948-1.7v-.012l16.884-34.1a1.9,1.9,0,0,0,1.563-.271,5.507,5.507,0,0,0,2.5-4.319v-.012l14.989-8.651c0,1.587,1.12,2.24,2.51,1.44a5.529,5.529,0,0,0,2.5-4.332,1.644,1.644,0,0,0-.935-1.711L329.891,74.8A1.848,1.848,0,0,0,331.515,74.556Z" transform="translate(-90.955 -47.911)"/>
          <g id="Group_3372" data-name="Group 3372" transform="translate(0 26.271)">
            <g id="Group_3360" data-name="Group 3360" transform="translate(0 215.549)">
              <path id="Path_483" data-name="Path 483" class="cls-14" d="M91.686,268.478a.607.607,0,0,1-.432-.177.614.614,0,0,1,0-.87L108.9,249.593a.615.615,0,1,1,.875.865L92.124,268.3A.614.614,0,0,1,91.686,268.478Z" transform="translate(-91.071 -249.411)"/>
            </g>
            <g id="Group_3361" data-name="Group 3361" transform="translate(21.871 184.419)">
              <path id="Path_484" data-name="Path 484" class="cls-14" d="M109.459,251.132a.605.605,0,0,1-.329-.095.614.614,0,0,1-.192-.848L125.182,224.4a.615.615,0,0,1,1.041.656l-16.244,25.788A.612.612,0,0,1,109.459,251.132Z" transform="translate(-108.844 -224.114)"/>
            </g>
            <g id="Group_3362" data-name="Group 3362" transform="translate(41.989 182.014)">
              <path id="Path_485" data-name="Path 485" class="cls-14" d="M141.8,228.009a.621.621,0,0,1-.17-.023l-16-4.618a.615.615,0,0,1,.341-1.183l16,4.618a.615.615,0,0,1-.171,1.206Z" transform="translate(-125.191 -222.159)"/>
            </g>
            <g id="Group_3363" data-name="Group 3363" transform="translate(62.209 166.708)">
              <path id="Path_486" data-name="Path 486" class="cls-14" d="M142.238,228.886a.615.615,0,0,1-.465-1.018L157.3,209.935a.615.615,0,0,1,.93.8L142.7,228.673A.617.617,0,0,1,142.238,228.886Z" transform="translate(-141.623 -209.722)"/>
            </g>
            <g id="Group_3364" data-name="Group 3364" transform="translate(81.979 138.145)">
              <path id="Path_487" data-name="Path 487" class="cls-14" d="M158.3,210.834a.627.627,0,0,1-.351-.11.618.618,0,0,1-.155-.858l16-23.091a.615.615,0,1,1,1.012.7l-16,23.092A.618.618,0,0,1,158.3,210.834Z" transform="translate(-157.688 -186.511)"/>
            </g>
            <g id="Group_3365" data-name="Group 3365" transform="translate(102.398 120.042)">
              <path id="Path_488" data-name="Path 488" class="cls-14" d="M174.9,186.151a.615.615,0,0,1-.4-1.08l15.151-13.121a.615.615,0,0,1,.806.93L175.3,186A.611.611,0,0,1,174.9,186.151Z" transform="translate(-174.281 -171.8)"/>
            </g>
            <g id="Group_3366" data-name="Group 3366" transform="translate(122.202 97.427)">
              <path id="Path_489" data-name="Path 489" class="cls-14" d="M190.989,172.594a.615.615,0,0,1-.465-1.018l15.538-17.941a.615.615,0,0,1,.93.8l-15.538,17.941A.611.611,0,0,1,190.989,172.594Z" transform="translate(-190.374 -153.423)"/>
            </g>
            <g id="Group_3367" data-name="Group 3367" transform="translate(141.73 95.877)">
              <path id="Path_490" data-name="Path 490" class="cls-14" d="M223.316,162.9a.608.608,0,0,1-.308-.082l-16.458-9.5a.615.615,0,1,1,.615-1.064l16.458,9.5a.615.615,0,0,1-.308,1.148Z" transform="translate(-206.243 -152.163)"/>
            </g>
            <g id="Group_3368" data-name="Group 3368" transform="translate(162.383 91.192)">
              <path id="Path_491" data-name="Path 491" class="cls-14" d="M223.64,162.7a.615.615,0,0,1-.4-1.08l15.14-13.111a.615.615,0,1,1,.8.93l-15.14,13.111A.611.611,0,0,1,223.64,162.7Z" transform="translate(-223.025 -148.357)"/>
            </g>
            <g id="Group_3369" data-name="Group 3369" transform="translate(181.512 51.908)">
              <path id="Path_492" data-name="Path 492" class="cls-14" d="M239.185,151.693a.616.616,0,0,1-.551-.889l16.841-34.028a.615.615,0,0,1,1.1.545l-16.841,34.03A.611.611,0,0,1,239.185,151.693Z" transform="translate(-238.57 -116.434)"/>
            </g>
            <g id="Group_3370" data-name="Group 3370" transform="translate(202.449 38.58)">
              <path id="Path_493" data-name="Path 493" class="cls-14" d="M256.2,115.492a.615.615,0,0,1-.308-1.148l14.995-8.657a.615.615,0,1,1,.615,1.064l-14.995,8.658A.621.621,0,0,1,256.2,115.492Z" transform="translate(-255.584 -105.603)"/>
            </g>
            <g id="Group_3371" data-name="Group 3371" transform="translate(221.502)">
              <path id="Path_494" data-name="Path 494" class="cls-14" d="M271.681,109.472a.6.6,0,0,1-.273-.064.614.614,0,0,1-.278-.823l16.821-33.99a.615.615,0,0,1,1.1.546L272.233,109.13A.611.611,0,0,1,271.681,109.472Z" transform="translate(-271.066 -74.252)"/>
            </g>
          </g>
          <g id="Group_3385" data-name="Group 3385" transform="translate(17.495 19.916)">
            <g id="Group_3373" data-name="Group 3373" transform="translate(0 216.311)">
              <path id="Path_495" data-name="Path 495" class="cls-14" d="M107.285,252.555a1.881,1.881,0,0,1-.957-.252,2.333,2.333,0,0,1-1.04-2.15,6.124,6.124,0,0,1,2.807-4.862h0a2.125,2.125,0,0,1,3.422,1.976,6.117,6.117,0,0,1-2.807,4.861A2.885,2.885,0,0,1,107.285,252.555Zm1.425-6.2a4.931,4.931,0,0,0-2.192,3.8.934.934,0,0,0,1.576.911,4.927,4.927,0,0,0,2.192-3.8.934.934,0,0,0-1.576-.912Z" transform="translate(-105.288 -244.866)"/>
            </g>
            <g id="Group_3374" data-name="Group 3374" transform="translate(19.995 184.564)">
              <path id="Path_496" data-name="Path 496" class="cls-14" d="M123.533,226.757a1.907,1.907,0,0,1-.957-.25,2.339,2.339,0,0,1-1.04-2.152,6.126,6.126,0,0,1,2.807-4.862h0a2.126,2.126,0,0,1,3.424,1.976,6.118,6.118,0,0,1-2.808,4.861A2.873,2.873,0,0,1,123.533,226.757Zm1.425-6.2a4.927,4.927,0,0,0-2.192,3.8,1.211,1.211,0,0,0,.425,1.085,1.224,1.224,0,0,0,1.152-.175,4.926,4.926,0,0,0,2.193-3.8.934.934,0,0,0-1.578-.911Z" transform="translate(-121.536 -219.067)"/>
            </g>
            <g id="Group_3375" data-name="Group 3375" transform="translate(39.99 190.336)">
              <path id="Path_497" data-name="Path 497" class="cls-14" d="M139.781,231.448a1.9,1.9,0,0,1-.957-.251,2.336,2.336,0,0,1-1.04-2.151,6.115,6.115,0,0,1,2.807-4.861,2.124,2.124,0,0,1,3.422,1.975,6.112,6.112,0,0,1-2.807,4.861A2.869,2.869,0,0,1,139.781,231.448Zm2.234-6.457a1.688,1.688,0,0,0-.808.258,4.925,4.925,0,0,0-2.192,3.8.933.933,0,0,0,1.576.911,4.923,4.923,0,0,0,2.192-3.8,1.21,1.21,0,0,0-.423-1.085A.678.678,0,0,0,142.015,224.991Z" transform="translate(-137.784 -223.758)"/>
            </g>
            <g id="Group_3376" data-name="Group 3376" transform="translate(59.984 167.266)">
              <path id="Path_498" data-name="Path 498" class="cls-14" d="M156.03,212.7a1.892,1.892,0,0,1-.957-.251,2.336,2.336,0,0,1-1.041-2.151,6.118,6.118,0,0,1,2.807-4.861h0a2.125,2.125,0,0,1,3.424,1.975,6.113,6.113,0,0,1-2.808,4.861A2.865,2.865,0,0,1,156.03,212.7Zm1.424-6.2a4.929,4.929,0,0,0-2.192,3.8.933.933,0,0,0,1.576.911,4.926,4.926,0,0,0,2.193-3.8.934.934,0,0,0-1.578-.911Z" transform="translate(-154.032 -205.011)"/>
            </g>
            <g id="Group_3377" data-name="Group 3377" transform="translate(79.98 138.388)">
              <path id="Path_499" data-name="Path 499" class="cls-14" d="M172.277,189.233a1.882,1.882,0,0,1-.956-.251,2.333,2.333,0,0,1-1.04-2.15,6.123,6.123,0,0,1,2.806-4.862h0a2.125,2.125,0,0,1,3.424,1.975,6.113,6.113,0,0,1-2.808,4.861A2.866,2.866,0,0,1,172.277,189.233Zm1.425-6.2a4.93,4.93,0,0,0-2.19,3.8.932.932,0,0,0,1.575.909,4.923,4.923,0,0,0,2.193-3.8.934.934,0,0,0-1.578-.911Z" transform="translate(-170.281 -181.544)"/>
            </g>
            <g id="Group_3378" data-name="Group 3378" transform="translate(99.975 121.071)">
              <path id="Path_500" data-name="Path 500" class="cls-14" d="M188.526,175.163a1.9,1.9,0,0,1-.957-.251,2.338,2.338,0,0,1-1.04-2.151,6.124,6.124,0,0,1,2.806-4.862h0a2.126,2.126,0,0,1,3.424,1.975,6.115,6.115,0,0,1-2.808,4.862A2.865,2.865,0,0,1,188.526,175.163Zm1.424-6.2a4.929,4.929,0,0,0-2.19,3.8.933.933,0,0,0,1.575.911,4.929,4.929,0,0,0,2.193-3.8.934.934,0,0,0-1.578-.909Z" transform="translate(-186.529 -167.472)"/>
            </g>
            <g id="Group_3379" data-name="Group 3379" transform="translate(139.965 109.528)">
              <path id="Path_501" data-name="Path 501" class="cls-14" d="M221.022,165.782a1.9,1.9,0,0,1-.957-.251,2.337,2.337,0,0,1-1.04-2.151,6.113,6.113,0,0,1,2.808-4.861,2.124,2.124,0,0,1,3.422,1.974,6.117,6.117,0,0,1-2.807,4.862A2.873,2.873,0,0,1,221.022,165.782Zm2.235-6.457a1.681,1.681,0,0,0-.808.258,4.925,4.925,0,0,0-2.193,3.8.934.934,0,0,0,1.578.911,4.929,4.929,0,0,0,2.192-3.8,1.208,1.208,0,0,0-.425-1.084A.67.67,0,0,0,223.257,159.325Z" transform="translate(-219.025 -158.092)"/>
            </g>
            <g id="Group_3380" data-name="Group 3380" transform="translate(159.959 92.211)">
              <path id="Path_502" data-name="Path 502" class="cls-14" d="M237.269,151.71a1.894,1.894,0,0,1-.956-.251,2.336,2.336,0,0,1-1.04-2.15,6.127,6.127,0,0,1,2.807-4.863h0a2.125,2.125,0,0,1,3.422,1.976,6.117,6.117,0,0,1-2.807,4.861A2.87,2.87,0,0,1,237.269,151.71Zm1.426-6.2a4.931,4.931,0,0,0-2.192,3.8.933.933,0,0,0,1.576.909,4.929,4.929,0,0,0,2.192-3.8.933.933,0,0,0-1.576-.911Z" transform="translate(-235.273 -144.02)"/>
            </g>
            <g id="Group_3381" data-name="Group 3381" transform="translate(199.946 40.263)">
              <path id="Path_503" data-name="Path 503" class="cls-14" d="M269.764,109.5a1.887,1.887,0,0,1-.957-.251,2.338,2.338,0,0,1-1.04-2.151,6.116,6.116,0,0,1,2.808-4.861h0A2.125,2.125,0,0,1,274,104.208a6.115,6.115,0,0,1-2.807,4.861A2.87,2.87,0,0,1,269.764,109.5Zm1.426-6.2a4.929,4.929,0,0,0-2.193,3.8.934.934,0,0,0,1.578.911,4.929,4.929,0,0,0,2.192-3.8.933.933,0,0,0-1.576-.911Z" transform="translate(-267.767 -101.807)"/>
            </g>
            <g id="Group_3382" data-name="Group 3382" transform="translate(179.955 51.807)">
              <path id="Path_504" data-name="Path 504" class="cls-14" d="M253.518,118.877a1.894,1.894,0,0,1-.956-.251,2.336,2.336,0,0,1-1.04-2.15,6.123,6.123,0,0,1,2.807-4.863h0a2.125,2.125,0,0,1,3.422,1.976,6.117,6.117,0,0,1-2.807,4.861A2.882,2.882,0,0,1,253.518,118.877Zm1.426-6.2a4.927,4.927,0,0,0-2.192,3.8.933.933,0,0,0,1.576.909,4.929,4.929,0,0,0,2.192-3.8.933.933,0,0,0-1.576-.911Z" transform="translate(-251.522 -111.187)"/>
            </g>
            <g id="Group_3383" data-name="Group 3383" transform="translate(219.945)">
              <path id="Path_505" data-name="Path 505" class="cls-14" d="M286.015,76.778a1.9,1.9,0,0,1-.957-.251,2.335,2.335,0,0,1-1.04-2.151,6.113,6.113,0,0,1,2.808-4.861,2.125,2.125,0,0,1,3.422,1.975,6.115,6.115,0,0,1-2.807,4.861A2.873,2.873,0,0,1,286.015,76.778Zm2.235-6.457a1.681,1.681,0,0,0-.809.258,4.927,4.927,0,0,0-2.193,3.8.934.934,0,0,0,1.578.911,4.927,4.927,0,0,0,2.192-3.8,1.211,1.211,0,0,0-.425-1.085A.689.689,0,0,0,288.25,70.321Z" transform="translate(-284.018 -69.088)"/>
            </g>
            <g id="Group_3384" data-name="Group 3384" transform="translate(119.97 97.984)">
              <path id="Path_506" data-name="Path 506" class="cls-14" d="M204.774,156.4a1.88,1.88,0,0,1-.957-.251,2.334,2.334,0,0,1-1.04-2.15,6.119,6.119,0,0,1,2.807-4.862h0a2.125,2.125,0,0,1,3.422,1.975,6.123,6.123,0,0,1-2.807,4.862A2.883,2.883,0,0,1,204.774,156.4Zm2.234-6.457a1.681,1.681,0,0,0-.809.258h0a4.931,4.931,0,0,0-2.192,3.8.933.933,0,0,0,1.576.909,4.927,4.927,0,0,0,2.192-3.8,1.212,1.212,0,0,0-.425-1.085A.689.689,0,0,0,207.008,149.943Zm-1.116-.274h0Z" transform="translate(-202.777 -148.711)"/>
            </g>
          </g>
          <g id="Group_3387" data-name="Group 3387" transform="translate(0.308)">
            <g id="Group_3386" data-name="Group 3386">
              <path id="Path_507" data-name="Path 507" class="cls-14" d="M125.532,292.526c-4.137,0-7.6-2.475-11.187-5.047-5.918-4.236-12.034-8.614-22.408-2.63l-.615-1.064c11.059-6.387,17.8-1.563,23.739,2.693,5.171,3.7,9.638,6.9,16.253,3.08,6.287-3.632,8.026-15.349,10.037-28.918,2.631-17.737,5.612-37.841,19.953-46.119,13.032-7.526,18.271,1.552,23.337,10.327,2.424,4.2,4.93,8.537,8.25,10.8,3.688,2.52,7.948,2.224,13.4-.925,12.233-7.067,16.024-34.056,19.691-60.157,3.708-26.4,7.541-53.692,20.3-61.057,3.473-2.006,6.653-2.489,9.45-1.442,6.643,2.487,10.343,13.262,13.921,23.682,3.48,10.136,7.08,20.62,13.16,22.86,2.487.914,5.25.438,8.454-1.458,11.665-6.9,14.447-26.706,17.393-47.681,3.272-23.283,6.654-47.36,22.6-56.566l.615,1.064c-15.427,8.907-18.767,32.681-22,55.674-2.989,21.275-5.812,41.369-17.986,48.569-3.494,2.066-6.69,2.588-9.506,1.552-6.629-2.443-10.325-13.206-13.9-23.614C265,126,261.4,115.5,255.3,113.219c-2.47-.923-5.22-.481-8.4,1.355-12.237,7.066-16.029,34.058-19.7,60.163-3.708,26.394-7.54,53.685-20.294,61.051-5.831,3.367-10.643,3.655-14.711.879-3.553-2.424-6.131-6.888-8.623-11.2-4.981-8.631-9.685-16.785-21.656-9.878-13.826,7.983-16.761,27.773-19.35,45.236-2.059,13.884-3.838,25.875-10.64,29.8A12.661,12.661,0,0,1,125.532,292.526Z" transform="translate(-91.321 -52.904)"/>
            </g>
            <path id="Path_508" data-name="Path 508" class="cls-14" d="M219.388,98.472c2.154-1.243,3.9-.235,3.9,2.251a8.618,8.618,0,0,1-3.9,6.754c-2.152,1.243-3.9.235-3.9-2.252A8.619,8.619,0,0,1,219.388,98.472Z" transform="translate(-62.688 -42.519)"/>
          </g>
          <g id="Group_3389" data-name="Group 3389" transform="translate(74.981 69.18)">
            <g id="Group_3388" data-name="Group 3388">
              <path id="Path_509" data-name="Path 509" class="cls-7" d="M152.617,159.413a.615.615,0,0,1-.308-1.147L192.1,135.292l4.922-14.213a.62.62,0,0,1,.273-.331L217.291,109.2a.615.615,0,1,1,.615,1.064l-19.8,11.43-4.922,14.213a.609.609,0,0,1-.274.33l-39.99,23.088A.608.608,0,0,1,152.617,159.413Z" transform="translate(-152.002 -109.121)"/>
            </g>
            <path id="Path_510" data-name="Path 510" class="cls-7" d="M153.409,146.063a5.711,5.711,0,0,1,2.664-4.424l29.662-17.126c1.472-.849,2.664-.246,2.664,1.348a5.714,5.714,0,0,1-2.664,4.425l-29.662,17.125C154.6,148.26,153.409,147.657,153.409,146.063Z" transform="translate(-151.677 -105.66)"/>
          </g>
        </g>
      </g>
    </g>
    <g id="Character" transform="translate(381.444 83.893)">
      <g id="Character-2" data-name="Character">
        <path id="Hair" d="M425.892,84.066c10.565,4.728,9.939,14.348,9.914,33.482s0,49.5,0,49.5H386.622V84.065Z" transform="translate(-297.469 -69.932)"/>
        <path id="Arm" class="cls-16" d="M386.262,140.367l-26.2,18.343c-2.1-3.193-13.351-18.977-15.475-22.543a32.33,32.33,0,0,1-3.566-9.625c-.382-1.687-.682-3.244-1.233-4.917a18.859,18.859,0,0,0-1.341-3.5c-.684-1.2-1.333-2.429-2-3.643a1.655,1.655,0,0,0-.444-.583,1.271,1.271,0,0,0-1.493.235,3.391,3.391,0,0,0-1.041,2.555,12.828,12.828,0,0,0,.422,2.807,7.051,7.051,0,0,1,.164,2.819,4.435,4.435,0,0,1-3.022-1.339,47.031,47.031,0,0,1-7.424-7.541,38.785,38.785,0,0,0-2.961-3.468,3.351,3.351,0,0,0-2.289-.853,3.41,3.41,0,0,0-2.059,1.013,6.859,6.859,0,0,0-1.874,3.474,13.069,13.069,0,0,0-.185,3.985,18.566,18.566,0,0,0,.954,5.359,16.3,16.3,0,0,0,1.727,3.52,30.417,30.417,0,0,0,6.682,7.247c1.434,1.175,4.285,2.6,5.587,3.9,1.831,1.839,2.3,2.993,3.545,5.276.715,1.313,1.368,2.67,2.049,4.018,3.346,6.621,10.95,21.592,15.317,27.135s8.387,3.944,16.1.631,36.429-19.781,36.429-19.781l5.977-25.439C406.274,129.358,400.65,129.934,386.262,140.367Z" transform="translate(-314.175 -64.157)"/>
        <g id="Group_3390" data-name="Group 3390" transform="translate(76.156 65.29)">
          <path id="Path_511" data-name="Path 511" class="cls-3" d="M381.523,170.82c.192,4.434,1.012,20.044,1.012,20.044,17.983,12.407,48.794,3.449,48.794,3.449,1.423-10.008,4.006-24.048,7.742-33.849,0,0-14.121-19.49-5.139-33.336l-16.381-1.066L402.2,125.85l-7.849-.214c-7.519,8.373-14.62,17.952-16.433,22.481C376.062,152.739,373.658,161.449,381.523,170.82Z" transform="translate(-376.061 -125.636)"/>
        </g>
        <g id="Group_3393" data-name="Group 3393" transform="translate(61.021 131.198)">
          <path id="Path_513" data-name="Path 513" d="M437.412,345.96a107.292,107.292,0,0,1,2.273,11.116c.626,4.209,1.023,7.329,2.406,14.515,1.261,6.554,2.807,11.415-2.023,17.024-3.955,4.6-12.687,5.762-15.22.858-2.9-5.607-1.464-13.629-1.172-19.345s-.464-8.535-.485-13.083c-.018-4.007.165-5.648.341-9.108C428.079,347.635,432.866,346.374,437.412,345.96Z" transform="translate(-350.086 -140.737)"/>
          <path id="Path_514" data-name="Path 514" class="cls-16" d="M401.153,348.174a171.287,171.287,0,0,0-2.7,17.846c-.619,6.682-1.045,8.148.386,10.29l.036.053c1.647,2.471,2.9,4.77,2.7,6.383-.236,1.941-1.621,3.612-2.766,5.145a26.375,26.375,0,0,0-2.437,4.574c-1.815,3.731-2.594,7.825-3.438,11.833a15.475,15.475,0,0,1-1.071,3.581c-1.871,3.878-6.533,5.724-10.91,6.418-4.254.674-9.069,1.117-13.292-.161-1.778-.538-3.335-1.361-3.531-3.414s1.145-3.1,3.822-5.267a36.411,36.411,0,0,0,3.718-3.376,12.863,12.863,0,0,0,2.029-2.989,87.975,87.975,0,0,0,5.565-12.658c1.707-4.833,2.652-8.318,2.8-12.518.178-4.925-.036-16.892-.272-25.828,0-.148-.009-.3-.012-.449l.012.449c-.605-12.07-1.2-35.1-1.861-50.822C378.7,267.7,386.24,188.4,386.24,188.4l-.512-1.222-.228-3.158s3.448,5.455,19.814,5.053a163.16,163.16,0,0,0,28.717-3.682c2.172,5.887,7.743,8.251,11.49,19.29,4.365,12.859,1.852,50.921-.046,91.748,3.507,16.892,5.69,24.757,5.859,33.6.22,11.67.268,20.262-.153,31.293-.361,9.472-.322,16.612-.177,21.981.2,7.425,2.887,19.442,1.856,25.155-1.549,8.582-11.874,11.707-13.4,2.035-.954-6.048-1.663-19.356-2.416-25.959-.87-7.62-1.986-13.908-3.746-23.272s-12.5-45.724-14.932-63.137c-1.653-11.811-3.745-29.241-6.557-43.717-1.619,8.225-5.936,31.176-6.734,41.272,2.213,9.584.992,15.761.342,24.559C404.691,330.078,401.943,340.836,401.153,348.174Z" transform="translate(-363.68 -178.081)"/>
          <g id="Group_3391" data-name="Group 3391" transform="translate(0 196.748)">
            <path id="Path_515" data-name="Path 515" class="cls-5" d="M391.913,369.935l-1.557-.242c-.026-4.73.325-9.051-.858-11.3l2.32-5.775Z" transform="translate(-357.826 -335.949)"/>
            <path id="Path_516" data-name="Path 516" class="cls-5" d="M395.667,349.233c-.4,3.238-2.365,6.539-2.606,12.924a53,53,0,0,0,.044,8.166l-1.626.394-.095-17.313Z" transform="translate(-357.391 -336.73)"/>
            <path id="Path_517" data-name="Path 517" class="cls-5" d="M364.447,375.239s.044,1.894.881,2.522,2.586,2.525,11.232,2.145,11.7-2.392,14.695-4.948,3.879-9.36,4.37-12.568c.954-6.216,3.7-9.445,6.254-12.551a5.365,5.365,0,0,0,.305-3.228s-5.834.957-9.047,8.537-7.073,14.964-14.092,16.987A124.343,124.343,0,0,1,364.447,375.239Z" transform="translate(-363.603 -337.335)"/>
            <path id="Path_518" data-name="Path 518" d="M401.661,343.6c-1.191-2.107-2.311-2.71-3.468-4.527a8.9,8.9,0,0,0-2.856,4.354c-.555,1.658-2.07,9.808-4.259,16.282-1.644,4.857-4.313,7.408-7.952,8.69a15.077,15.077,0,0,1-7.13.678l-.033,0c-4.477-.655-3.382-3.753-3.382-3.753-1.062,1.362-5.392,4.674-7.966,7.114-1.463,1.387-.821,3.528.249,4.914,1.233,1.055,4.126,3.171,14.873,1.811,9.541-1.206,11.837-5.416,12.77-7.315.713-1.451,1.354-4.57,2.113-8.583a26.5,26.5,0,0,1,3.485-9.089c.219-.352.434-.679.641-.961h0c.653-.9,1.429-1.893,2.3-2.881.677-.767,1.2-1.124,1.413-1.861A6.76,6.76,0,0,0,401.661,343.6Z" transform="translate(-363.761 -339.073)"/>
          </g>
          <g id="Group_3392" data-name="Group 3392" transform="translate(15.519)">
            <path id="Path_519" data-name="Path 519" d="M449.042,330.376c-.167-8.846-.506-17.14-5.37-33.738,1.9-40.829,2.859-79.1-.534-92.226-2.6-10.072-4.535-13.458-9.05-20.725,0,0-17.215,5.107-31.6,5.459-16.366.4-19.814-5.053-19.814-5.053l-.434,2.78-.14,2.594s-7.06,78.974-5.5,105.875c.907,15.665,1.063,42.68,1.638,56.523,4.5,3.073,14.564,4.52,19.836,1.6,1.49-9.739,4.178-21.432,5.583-31.89,1.176-8.748,1.559-16.281-.653-25.864,1.252-9.661,5.017-29.5,6.637-37.729,1.978,15.418,4.249,28.412,5.9,40.223,2.437,17.413,11.387,50.469,13.5,59.717,3.432,2.331,14.6,3.192,19.811-.945C449.274,345.943,449.264,342.047,449.042,330.376Z" transform="translate(-376.373 -178.157)"/>
            <path id="Path_520" data-name="Path 520" class="cls-17" d="M407.358,251.464l-4.436-30.486s-10.709-3.819-16.666-9.04c0,0,3.148,6.486,12.95,11.079l5.586,29.147-3.467,32.811Z" transform="translate(-374.093 -171.642)"/>
            <path id="Path_521" data-name="Path 521" class="cls-6" d="M430.772,179.193s.176,2.4,4.836,10.124a84.168,84.168,0,0,1-29.2,7.713c-16.217,1.1-25.38-6.527-25.38-6.527s.343-6.688.252-10.453c0,0,5.792,5.245,21.777,4.931A75.448,75.448,0,0,0,430.772,179.193Z" transform="translate(-375.299 -179.193)"/>
          </g>
        </g>
        <g id="Head" transform="translate(76.695)">
          <g id="Group_3396" data-name="Group 3396">
            <path id="Path_522" data-name="Path 522" d="M397.389,125.563l-2.915.106a34.969,34.969,0,0,0-9.874,16.383c-1.986,8,1.082,9.594,1.082,9.594s-3.871,10.315.3,12.5c2.744-6.159,13.2-36.14,13.2-36.14Z" transform="translate(-374.785 -60.362)"/>
            <path id="Path_523" data-name="Path 523" d="M415.977,125.636l7.676.967s-2.282,9.775-9.647,16.4a40.456,40.456,0,0,1-16.513,8.606s.138,5.256-2.625,8.452-9.275,4.068-9.275,4.068a48.348,48.348,0,0,1,3.028-9.753C392.937,144.507,415.977,125.636,415.977,125.636Z" transform="translate(-374.401 -60.346)"/>
            <path id="Path_524" data-name="Path 524" d="M429.372,88.749c-1.872-7.931-6.538-12.959-17.943-14.522-7.546-1.595-11.545.321-20.069-1.056-3.864-.625-7.4-1-10.071.167-3.041,1.329-4.948,4.5-4.78,8.727a9.139,9.139,0,0,0,2.508,5.988c-2.933,4.11-.562,11.324,5.715,13.25l5.287,21.735s27.252,12.377,27.517,7.518C423.288,121.164,433.265,105.245,429.372,88.749Z" transform="translate(-376.499 -72.58)"/>
            <g id="Group_3395" data-name="Group 3395" transform="translate(6.907 14.681)">
              <path id="Path_525" data-name="Path 525" class="cls-16" d="M416.772,136.06l.189-21.433s2.617,2.9,6.826.153c3.773-2.461,5.6-8.09,3.222-11.17-1.688-2.183-7.2-3.633-9.632.733,0,0-6.445-.663-14.552-7.113C394.575,90.667,393,85.385,387.859,84.51c-2.53,1.72-5.186,7.05-5.724,21.464-.4,10.666,4.1,16.016,6.436,17.977,1.906,1.6,4.43,1.948,8.767,1.48l-.09,10.122c-5.283,9.487-6.043,16.171-6.019,25.011C400.368,151.672,406.018,144.311,416.772,136.06Z" transform="translate(-382.111 -84.51)"/>
              <g id="Group_3394" data-name="Group 3394" transform="translate(2.23 9.376)">
                <path id="Path_526" data-name="Path 526" class="cls-5" d="M397.079,99.423a1.957,1.957,0,0,0,1.73,2.173,1.981,1.981,0,0,0,2.151-1.779,1.96,1.96,0,0,0-1.731-2.174A1.981,1.981,0,0,0,397.079,99.423Z" transform="translate(-380.892 -90.86)"/>
                <path id="Path_527" data-name="Path 527" class="cls-5" d="M384.264,95.87l4.159-2.553a2.385,2.385,0,0,0-3.318-.831A2.5,2.5,0,0,0,384.264,95.87Z" transform="translate(-383.923 -92.129)"/>
                <path id="Path_528" data-name="Path 528" class="cls-18" d="M397.759,108.356l-5.21,1.656a2.672,2.672,0,0,0,3.384,1.8A2.8,2.8,0,0,0,397.759,108.356Z" transform="translate(-381.934 -88.387)"/>
                <path id="Path_529" data-name="Path 529" class="cls-5" d="M385.047,98.867a1.958,1.958,0,0,0,1.731,2.173,1.98,1.98,0,0,0,2.15-1.781,1.958,1.958,0,0,0-1.73-2.173A1.981,1.981,0,0,0,385.047,98.867Z" transform="translate(-383.667 -90.988)"/>
                <path id="Path_530" data-name="Path 530" class="cls-18" d="M394.145,97.767l-.852,10.441-5.517-2.011Z" transform="translate(-383.035 -90.829)"/>
                <path id="Path_531" data-name="Path 531" class="cls-18" d="M394.49,118.885c4.561-.335,14.02-2.451,15.669-5.986a9.347,9.347,0,0,1-3.518,4.433c-2.912,2.188-12.177,4.43-12.177,4.43Z" transform="translate(-381.493 -87.339)"/>
              </g>
            </g>
            <path id="Path_532" data-name="Path 532" class="cls-5" d="M411.621,100.6l-.322,5.906h0a4.172,4.172,0,0,1-3.982-4.356l.311-5.705Z" transform="translate(-369.394 -67.077)"/>
          </g>
        </g>
        <g id="Arm-2" data-name="Arm" transform="translate(60.763 66.783)">
          <g id="Group_3398" data-name="Group 3398" transform="translate(0 40.791)">
            <path id="Path_533" data-name="Path 533" class="cls-6" d="M363.552,165.222l45.214-1.2,13.408,50.814-42.988.008Z" transform="translate(-363.552 -159.067)"/>
            <g id="Group_3397" data-name="Group 3397" transform="translate(10.091)">
              <path id="Path_537" data-name="Path 537" class="cls-5" d="M371.763,164.872c-.132-.543.943-1,2.4-1.019l2.638-.037s-.791-3.405,5.063-3.791S389,163.395,389,163.395l2.817-.018c1.555-.01,2.966.407,3.15.933l.333.949-23.29.619S371.895,165.413,371.763,164.872Z" transform="translate(-371.752 -159.996)"/>
              <path id="Path_538" data-name="Path 538" class="cls-5" d="M374.5,164.893c2.135-.1,3.021-.078,3.342,1.26.365,1.528.516,2.684.516,2.684l10.309-.265s-.5-1.923-.661-2.684.19-1.345,1.83-1.386l.139-.679-16.153.566Z" transform="translate(-371.276 -159.113)"/>
              <path id="Path_539" data-name="Path 539" class="cls-6" d="M374.157,169.238s-.167-.7-.375-1.571,2.445-1.659,5.925-1.765l6.661-.2c3.479-.106,6.467.513,6.674,1.381l.375,1.573Z" transform="translate(-371.287 -158.684)"/>
            </g>
          </g>
          <path id="Path_540" data-name="Path 540" class="cls-16" d="M408.04,194.779c.049.187.117.447.117.447a2.26,2.26,0,0,1-.532.166,40.156,40.156,0,0,1-7.115.426c-2.077-.081-4.155-.283-6.242-.489a2.683,2.683,0,0,0-1.237.068,1.907,1.907,0,0,0-.864,2.31,10.753,10.753,0,0,0,1.292,2.365c.818,1.414,1.083,3.013,1.969,4.391,3.044,4.744,8.417,6.6,21.131,3.347,3.664-.938,7.722-3.032,12.392-4.1,9.58-2.2,15.99-4.118,23.866-6.671,7.945-2.576,6.822-6.682,5.848-13.107-1.138-7.5-5.426-25.149-10.022-40.26-4.894-16.088-8.564-16.222-18.407-16.819-10.068,14.453,2.963,33.142,2.963,33.142l8.247,23.963s-11.916,5.629-20.235,7.535a13.78,13.78,0,0,1-4.035.71c-2.782-.18-7.267-2.62-10.472-2.48Z" transform="translate(-356.973 -126.849)"/>
        </g>
      </g>
    </g>
    <g id="Magnifying_Glass" data-name="Magnifying Glass" transform="translate(174.957 426.137)">
      <g id="Glass">
        <g id="Group_3400" data-name="Group 3400" transform="translate(77.861)">
          <path id="Path_541" data-name="Path 541" d="M326.279,384.358c0-8.615-5.694-17.232-17.079-23.806-22.772-13.146-59.693-13.146-82.466,0-11.385,6.574-17.078,15.191-17.078,23.806h0v15.871c0,8.615,5.693,17.231,17.079,23.8,22.772,13.148,59.693,13.148,82.465,0,11.386-6.574,17.079-15.189,17.079-23.8V384.358Zm-96.725-18.922c10.17-5.871,23.811-9.105,38.413-9.105s28.243,3.234,38.412,9.105c9.2,5.309,14.26,12.029,14.26,18.923s-5.065,13.612-14.26,18.92c-10.168,5.872-23.811,9.105-38.412,9.105s-28.243-3.233-38.413-9.105c-9.2-5.309-14.259-12.028-14.259-18.92S220.358,370.745,229.554,365.436Z" transform="translate(-209.651 -350.692)"/>
          <path id="Path_543" data-name="Path 543" class="cls-19" d="M226.73,408.163c22.772,13.148,59.693,13.148,82.466,0s22.772-34.464,0-47.612-59.694-13.146-82.465,0S203.959,395.016,226.73,408.163Zm-11.438-23.8c0-6.894,5.063-13.614,14.259-18.923,10.17-5.871,23.811-9.105,38.413-9.105s28.243,3.234,38.413,9.105c9.2,5.309,14.259,12.029,14.259,18.923s-5.065,13.612-14.259,18.92c-10.171,5.872-23.813,9.105-38.413,9.105s-28.243-3.233-38.413-9.105C220.356,397.97,215.292,391.251,215.292,384.359Z" transform="translate(-209.652 -350.692)"/>
          <g id="Group_3399" data-name="Group 3399" transform="translate(5.635 5.638)">
            <path id="Path_544" data-name="Path 544" d="M214.231,383.3a15.64,15.64,0,0,0,2.279,7.94c2.311-4,6.383-7.759,11.988-10.984,10.162-5.876,23.81-9.114,38.414-9.114s28.241,3.238,38.4,9.114c5.605,3.225,9.677,6.981,12,10.984a15.733,15.733,0,0,0,2.267-7.94c0-6.891-5.064-13.613-14.268-18.925-10.162-5.864-23.808-9.1-38.4-9.1s-28.252,3.238-38.414,9.1C219.3,369.687,214.231,376.409,214.231,383.3Z" transform="translate(-214.231 -355.273)"/>
          </g>
          <path id="Path_545" data-name="Path 545" class="cls-13" d="M228.406,370.218c10.17-5.871,23.811-9.105,38.413-9.105s28.243,3.234,38.413,9.105c7.587,4.381,12.352,9.723,13.79,15.33-1.439,5.607-6.2,10.949-13.79,15.328-10.171,5.872-23.813,9.105-38.413,9.105s-28.243-3.233-38.413-9.105c-7.588-4.38-12.353-9.722-13.79-15.328C216.053,379.941,220.818,374.6,228.406,370.218Z" transform="translate(-208.507 -348.289)"/>
        </g>
        <g id="Group_3404" data-name="Group 3404" transform="translate(0 59.917)">
          <g id="Group_3401" data-name="Group 3401" transform="translate(68.888)">
            <path id="Path_546" data-name="Path 546" class="cls-6" d="M230.149,407.039a9.03,9.03,0,0,0-4.056-7.093,2.874,2.874,0,0,0-2.876-.3v0l-.01.006h0l-19.628,11.2-.014.007,0,0h0a2.874,2.874,0,0,0-1.2,2.632,9.029,9.029,0,0,0,4.057,7.093,2.87,2.87,0,0,0,2.888.3h0l19.626-11.2v0A2.86,2.86,0,0,0,230.149,407.039Z" transform="translate(-202.36 -399.381)"/>
            <path id="Path_547" data-name="Path 547" class="cls-5" d="M228.6,408.82a2.86,2.86,0,0,0,1.218-2.643,7.761,7.761,0,0,0-.693-3.058L203.81,417.595a7.752,7.752,0,0,0,2.273,2.13,2.87,2.87,0,0,0,2.888.3l19.626-11.2Z" transform="translate(-202.026 -398.519)"/>
          </g>
          <path id="Path_549" data-name="Path 549" class="cls-7" d="M152.814,451.9l67.642-39.058a10.637,10.637,0,0,0-3.49-3.639,3.766,3.766,0,0,0-3.7-.407l-.017-.016-.048.032-65.1,34.764Z" transform="translate(-145.983 -397.284)"/>
          <path id="Path_550" data-name="Path 550" class="cls-6" d="M152.814,451.9l67.642-39.058a10.637,10.637,0,0,0-3.49-3.639,3.766,3.766,0,0,0-3.7-.407l-.017-.016-.048.032-65.1,34.764Z" transform="translate(-145.983 -397.284)"/>
          <path id="Path_551" data-name="Path 551" d="M151.932,451.081l5,8.846,62.849-38.868a3.775,3.775,0,0,0,1.58-3.438,9.81,9.81,0,0,0-.522-2.98c-.065-.18-.146-.374-.212-.554-.2-.473-.407-.945-.651-1.4-.13-.229-.261-.441-.391-.668Z" transform="translate(-145.101 -396.467)"/>
          <g id="Group_3402" data-name="Group 3402" transform="translate(0 45.873)">
            <path id="Path_553" data-name="Path 553" d="M153.306,453.731a15.408,15.408,0,0,1-6.925-12.107c.018-4.45,3.148-6.242,6.991-4a15.417,15.417,0,0,1,6.925,12.107C160.278,454.177,157.149,455.969,153.306,453.731Z" transform="translate(-146.381 -436.658)"/>
          </g>
        </g>
      </g>
    </g>
  </g>
</svg>
